<?xml version="1.0" standalone="no"?>
<!DOCTYPE svg PUBLIC "-//W3C//DTD SVG 1.1//EN" "http://www.w3.org/Graphics/SVG/1.1/DTD/svg11.dtd" >
<svg>
<metadata>
Created by FontForge 20120731 at Tue Dec 11 11:20:02 2018
 By www-data
 All rights reserved, Phanlop Thongsuk, 1995
</metadata>
<defs>
<font id="PSL-Display" horiz-adv-x="0" >
  <font-face 
    font-family="PSL-Display"
    font-weight="400"
    font-stretch="normal"
    units-per-em="2048"
    panose-1="0 0 0 0 0 0 0 0 0 0"
    ascent="1638"
    descent="-410"
    x-height="717"
    cap-height="967"
    bbox="-745 -647 1500 1600"
    underline-thickness="30"
    underline-position="-75"
    unicode-range="U+0015-F101"
  />
<missing-glyph horiz-adv-x="1600" 
d="M100 0v1600h1400v-1600h-1400zM1400 100v1400h-1200v-1400h1200z" />
    <glyph glyph-name=".notdef" horiz-adv-x="1600" 
d="M100 0v1600h1400v-1600h-1400zM1400 100v1400h-1200v-1400h1200z" />
    <glyph glyph-name=".null" 
 />
    <glyph glyph-name="nonmarkingreturn" horiz-adv-x="532" 
 />
    <glyph glyph-name="space" unicode=" " horiz-adv-x="532" 
 />
    <glyph glyph-name="exclam" unicode="!" horiz-adv-x="424" 
d="M276 672l-32 -436h-64l-33 436v295h129v-295zM276 0h-129v129h129v-129z" />
    <glyph glyph-name="quotedbl" unicode="&#x22;" horiz-adv-x="307" 
d="M266 662h-69v292h69v-292zM113 662h-72v292h72v-292z" />
    <glyph glyph-name="numbersign" unicode="#" horiz-adv-x="655" 
d="M670 639l-25 -76h-156l-51 -160h154l-21 -75h-159l-109 -328h-76l109 328h-123l-113 -328h-73l110 328h-151l24 75h152l51 160h-152l25 76h152l108 328h78l-109 -328h123l107 328h78l-109 -328h156zM414 563h-125l-51 -160h122z" />
    <glyph glyph-name="dollar" unicode="$" horiz-adv-x="655" 
d="M627 262q0 -127 -68.5 -203.5t-204.5 -76.5v-132h-61v132q-76 0 -127 21.5t-84 68.5q-51 76 -51 227h110q0 -117 17 -152q30 -67 135 -67v360q-129 55 -176 97q-80 67 -80 172q0 112 70.5 185t185.5 73v131h63v-131q122 0 183 -70q29 -33 44 -80t15 -108h-113q0 58 -8 86
q-12 42 -53 65l-33 8q-9 2 -19 2h-16v-327q63 -28 104 -47t60 -31q107 -66 107 -203zM293 563v307q-56 0 -92 -30q-43 -37 -43 -117q0 -62 37 -100q12 -13 38 -28t60 -32zM508 238q0 74 -37 112q-30 34 -117 70v-340q84 0 119 38t35 120z" />
    <glyph glyph-name="percent" unicode="%" horiz-adv-x="1120" 
d="M1032 240q0 -131 -50 -185.5t-148 -54.5q-77 0 -123 53q-56 62 -56 191q0 99 43.5 161t153.5 62q98 0 143 -70q37 -55 37 -157zM809 967l-463 -985h-74l465 985h72zM432 719q0 -133 -46.5 -184.5t-147.5 -51.5q-91 0 -136 54q-22 28 -33.5 74t-11.5 112q0 99 39 158
q51 69 154 69q96 0 145 -73q37 -55 37 -158zM940 217q0 43 -2 70t-8 43q-23 65 -86 65q-61 0 -82 -63q-12 -38 -12 -115q0 -63 14 -94q22 -51 80 -51q42 0 69 30q27 33 27 115zM340 700q0 43 -2 70t-8 43q-20 64 -86 64q-61 0 -82 -64q-12 -38 -12 -113q0 -62 14 -94
q22 -51 82 -51q53 0 78 49q8 20 12 42t4 54z" />
    <glyph glyph-name="ampersand" unicode="&#x26;" horiz-adv-x="889" 
d="M844 -2h-142l-65 88q-97 -109 -246 -109q-138 0 -222.5 75.5t-84.5 205.5q0 52 14 94.5t45 79.5q43 52 156 119q-26 30 -41.5 53t-28.5 47q-28 58 -28 117q0 80 55 139.5t141 59.5q97 0 158 -50t61 -141q0 -69 -55 -139q-43 -51 -123 -102l199 -271q5 13 15 46l14 46
q12 44 12 88h102q0 -147 -75 -268zM502 776q0 44 -27 74q-25 31 -72 31q-40 0 -71 -31q-27 -30 -27 -70q0 -42 27 -92q17 -34 55 -84q24 18 37 28q28 23 43 44q35 46 35 100zM578 164l-230 313q-74 -50 -106 -92q-39 -55 -39 -129q0 -81 55 -131.5t145 -50.5q49 0 93 24
q23 14 42.5 29t39.5 37z" />
    <glyph glyph-name="quotesingle" unicode="'" horiz-adv-x="307" 
d="M190 662h-73v292h73v-292z" />
    <glyph glyph-name="parenleft" unicode="(" horiz-adv-x="424" 
d="M383 -276h-80q-102 155 -156 290q-61 159 -61 322q0 95 12 173.5t41 156.5q24 67 64 140.5t100 160.5h72q-39 -76 -70 -142q-21 -45 -39 -86q-31 -88 -47 -184.5t-16 -204.5q0 -95 9.5 -172t31 -154t56 -150.5t83.5 -149.5z" />
    <glyph glyph-name="parenright" unicode=")" horiz-adv-x="424" 
d="M338 354q0 -97 -12 -175t-41 -154q-22 -64 -62.5 -138.5t-101.5 -162.5h-74q85 161 111 227q31 90 47 185.5t16 203.5q0 178 -43 328q-19 70 -54 146.5t-83 152.5h80q51 -79 89 -149.5t66 -141.5q62 -162 62 -322z" />
    <glyph glyph-name="asterisk" unicode="*" horiz-adv-x="655" 
d="M543 801l-158 -49l104 -123l-57 -41l-108 127l-99 -121l-59 35l102 119l-155 59l24 55l156 -55v160h74v-156l155 51z" />
    <glyph glyph-name="plus" unicode="+" horiz-adv-x="696" 
d="M655 283h-262v-263h-90v263h-262v90h262v262h90v-262h262v-90z" />
    <glyph glyph-name="comma" unicode="," horiz-adv-x="307" 
d="M225 37q0 -61 -29.5 -104.5t-76.5 -63.5l-27 27q32 12 55 38q27 27 27 60q-7 -5 -31 -8q-31 0 -49.5 18.5t-21.5 52.5q0 31 20 52q17 17 51 20q36 0 59 -26t23 -66z" />
    <glyph glyph-name="hyphen" unicode="-" horiz-adv-x="424" 
d="M362 324h-301v90h301v-90z" />
    <glyph glyph-name="period" unicode="." horiz-adv-x="307" 
d="M225 72q0 -31 -18.5 -50t-52.5 -22q-31 0 -52 20q-17 19 -20 52q0 31 20 51q19 17 52 20q30 0 51 -20q17 -17 20 -51z" />
    <glyph glyph-name="slash" unicode="/" horiz-adv-x="348" 
d="M385 967l-340 -1002h-84l340 1002h84z" />
    <glyph glyph-name="zero" unicode="0" horiz-adv-x="696" 
d="M635 475q0 -116 -9.5 -194t-31.5 -134q-65 -165 -246 -165t-248 182q-37 106 -37 311q0 206 41 313q65 179 244 179q191 0 252 -176q35 -100 35 -316zM514 494v55q0 74 -5 126t-17 85q-37 110 -144 110q-97 0 -139 -114q-25 -77 -25 -203v-59v-23v-24q-2 -11 -2 -15v-57
q0 -179 45 -244q19 -27 48 -40t73 -13q114 0 148 137q18 74 18 279z" />
    <glyph glyph-name="one" unicode="1" horiz-adv-x="696" 
d="M442 0h-116v705h-222v83q118 0 172 33q30 18 49.5 54.5t26.5 91.5h90v-967z" />
    <glyph glyph-name="two" unicode="2" horiz-adv-x="696" 
d="M625 0h-564q0 67 9 106q5 27 12.5 50t21.5 53q8 19 33 47q13 14 26 27t23 22l199 178q30 29 52 54.5t33.5 46.5t17.5 49t6 67q0 78 -31 121q-37 49 -125 49q-94 0 -129 -75q-11 -27 -17 -64.5t-6 -91.5h-118v59q0 33 3.5 55t12.5 48q14 47 53 90q17 16 33.5 28t36.5 21
q27 12 63 19.5t74 7.5q128 0 198 -73t70 -196q0 -96 -43 -170q-29 -49 -125 -133l-188 -157q-74 -59 -74 -142h443v-96z" />
    <glyph glyph-name="three" unicode="3" horiz-adv-x="696" 
d="M625 285q0 -139 -74 -224q-70 -79 -221 -79q-75 0 -128.5 20t-88.5 64q-60 75 -60 219h115l-2 -35q0 -73 37 -119q42 -53 135 -53q40 0 70.5 11t54.5 36q43 46 43 125q0 122 -53 162q-25 18 -74.5 28.5t-118.5 10.5v96h37q82 0 123 24q57 39 57 142q0 41 -6.5 67.5
t-21.5 46.5q-34 43 -117 43q-91 0 -123 -57q-25 -42 -25 -131h-110q0 128 62 206.5t198 78.5q117 0 190 -64q36 -32 54 -74.5t18 -101.5q0 -84 -32 -137.5t-115 -79.5q84 -18 131 -80q22 -30 33.5 -66t11.5 -79z" />
    <glyph glyph-name="four" unicode="4" horiz-adv-x="696" 
d="M629 242h-94v-242h-115v242h-381v98l391 627h105v-629h94v-96zM420 338v463l-289 -463h289z" />
    <glyph glyph-name="five" unicode="5" horiz-adv-x="696" 
d="M621 328q0 -147 -60 -238q-74 -108 -225 -108q-277 0 -277 270h119q0 -42 8 -74t27 -55q39 -45 121 -45q86 0 131 72q37 62 37 161q0 101 -31 156q-41 72 -143 72q-103 0 -146 -88h-104l61 497h445v-96h-353l-45 -287q33 33 76 51q39 19 94 19q135 0 205 -94
q60 -83 60 -213z" />
    <glyph glyph-name="six" unicode="6" horiz-adv-x="696" 
d="M639 319q0 -155 -77 -246t-202 -91q-182 0 -254 149q-23 52 -35 124.5t-12 174.5q0 228 41 342q71 195 269 195q115 0 179 -62.5t64 -167.5h-116q0 133 -140 133q-112 0 -157 -147q-25 -84 -25 -227q31 58 84 88t111 30q132 0 204 -88q66 -81 66 -207zM518 311
q0 94 -33 144q-40 63 -135 63q-91 0 -131 -63q-31 -51 -31 -133q0 -126 43 -189q43 -55 127 -55q92 0 131 80q29 56 29 153z" />
    <glyph glyph-name="seven" unicode="7" horiz-adv-x="696" 
d="M635 860q-149 -188 -234.5 -404t-107.5 -456h-131q29 233 123 445t256 407h-480v96h574v-88z" />
    <glyph glyph-name="eight" unicode="8" horiz-adv-x="696" 
d="M633 291q0 -135 -64 -217q-70 -92 -215 -92q-142 0 -216.5 77t-74.5 217q0 108 66 177q56 54 131 69q-84 12 -127 70q-18 28 -28.5 65t-10.5 80q0 48 14 85.5t46 70.5q68 74 206 74q109 0 176.5 -60t67.5 -176q0 -40 -8 -72.5t-27 -60.5q-38 -57 -123 -74q91 -15 139 -82
t48 -151zM485 721q0 69 -26 104q-36 45 -107 45q-74 0 -104.5 -36.5t-30.5 -108.5q0 -75 32.5 -116.5t104.5 -41.5q67 0 101 41q30 44 30 113zM514 283q0 80 -37 129q-43 57 -129 57q-83 0 -125 -53q-18 -26 -28.5 -61t-10.5 -74q0 -91 35 -142q43 -61 137 -61
q71 0 114.5 52.5t43.5 152.5z" />
    <glyph glyph-name="nine" unicode="9" horiz-adv-x="696" 
d="M639 518q0 -119 -9.5 -200.5t-31.5 -141.5q-71 -194 -268 -194q-113 0 -179.5 61.5t-66.5 167.5h119q0 -133 139 -133q111 0 158 147q24 87 24 228q-29 -57 -84 -91q-50 -28 -110 -28q-67 0 -117.5 20t-85.5 64q-68 83 -68 211q0 155 77.5 246.5t199.5 91.5
q183 0 256 -150q47 -99 47 -299zM514 633q0 46 -8 84.5t-27 70.5q-43 82 -139 82q-86 0 -129 -73q-16 -27 -24.5 -65t-8.5 -83q0 -92 31 -147q41 -72 133 -72q89 0 135 64q37 50 37 139z" />
    <glyph glyph-name="colon" unicode=":" horiz-adv-x="307" 
d="M225 584q0 -31 -18.5 -50t-52.5 -22q-31 0 -52 20q-17 19 -20 52q0 31 20 51q19 17 52 20q30 0 51 -20q17 -17 20 -51zM225 72q0 -31 -18.5 -50t-52.5 -22q-31 0 -52 20q-17 19 -20 52q0 31 20 51q19 17 52 20q30 0 51 -20q17 -17 20 -51z" />
    <glyph glyph-name="semicolon" unicode=";" horiz-adv-x="307" 
d="M217 584q0 -31 -20 -52q-19 -17 -52 -20q-30 0 -51 20q-17 19 -20 52q0 31 18.5 49.5t52.5 21.5q31 0 52 -20q17 -17 20 -51zM225 37q0 -61 -29.5 -104.5t-76.5 -63.5l-27 27q32 12 55 38q27 27 27 60q-7 -5 -31 -8q-31 0 -49.5 18.5t-21.5 52.5q0 31 20 52q17 17 51 20
q36 0 59 -26t23 -66z" />
    <glyph glyph-name="less" unicode="&#x3c;" horiz-adv-x="696" 
d="M621 -12l-539 299v82l539 299v-95l-437 -245l437 -246v-94z" />
    <glyph glyph-name="equal" unicode="=" horiz-adv-x="696" 
d="M655 406h-614v90h614v-90zM655 160h-614v90h614v-90z" />
    <glyph glyph-name="greater" unicode="&#x3e;" horiz-adv-x="696" 
d="M621 287l-539 -299v94l438 246l-438 245v95l539 -299v-82z" />
    <glyph glyph-name="question" unicode="?" horiz-adv-x="672" 
d="M610 725q0 -105 -67 -190l-146 -160l-22 -41l-6 -43v-17q0 -10 -2 -24v-29h-123q0 109 17 149.5t93 116.5l54 58q21 26 35 46t24 38q18 36 18 88q0 66 -30 108q-39 52 -111 52q-99 0 -141 -68q-31 -49 -31 -145h-121q0 128 62 208q36 48 89 71.5t126 23.5q129 0 204 -66
q78 -62 78 -176zM377 72q0 -28 -21 -52q-17 -17 -49 -20q-29 0 -49 20q-17 19 -20 52q0 28 20 49q16 19 49 22q29 0 49 -20q18 -16 21 -51z" />
    <glyph glyph-name="at" unicode="@" horiz-adv-x="1032" 
d="M985 557q0 -35 -4 -62t-15.5 -62t-24 -59.5t-34.5 -54.5q-41 -63 -96 -100q-61 -43 -131 -43q-22 0 -36.5 3t-33.5 14q-32 19 -43 53q-63 -66 -153 -66q-79 0 -131 55.5t-52 139.5q0 140 88 262q97 131 236 131q105 0 147 -86l19 61h88l-133 -393l-6 -24q-5 -22 -6.5 -31
t-4.5 -12q0 -37 39 -37t83.5 31t74.5 73q27 44 45.5 100t18.5 111q0 153 -113 248.5t-270 95.5q-179 0 -301.5 -129t-122.5 -307q0 -176 124 -301t302 -125q97 0 191 49t155 133h76q-60 -112 -176.5 -177.5t-245.5 -65.5q-210 0 -351 144.5t-141 352.5q0 202 146 344
q73 72 158.5 108t189.5 36q176 0 305 -111q69 -60 104 -134t35 -165zM647 598q0 36 -26 65t-64 29q-90 0 -164 -110q-61 -98 -61 -201q0 -49 24 -88q25 -37 76 -37q46 0 82.5 34.5t65.5 84.5q13 27 22.5 50.5t22.5 61.5q22 64 22 111z" />
    <glyph glyph-name="A" unicode="A" horiz-adv-x="733" 
d="M741 0h-129l-82 279h-329l-78 -279h-127l297 967h153zM504 375l-135 516l-142 -516h277z" />
    <glyph glyph-name="B" unicode="B" horiz-adv-x="733" 
d="M680 285q0 -141 -79.5 -213t-233.5 -72h-277v967h299q136 0 205 -66q61 -58 61 -174q0 -87 -30.5 -134t-124.5 -79q95 -12 141 -76q39 -58 39 -153zM530 719q0 88 -43.5 119.5t-177.5 31.5h-102v-317h102q117 0 164 27q57 34 57 139zM561 279q0 109 -63 151
q-21 12 -58.5 19.5t-85.5 7.5h-45h-102v-361h182q90 0 133 43q39 45 39 140z" />
    <glyph glyph-name="C" unicode="C" horiz-adv-x="733" 
d="M680 350l-6 -59q0 -66 -12 -113q-6 -24 -18 -45.5t-34 -48.5q-36 -49 -96 -80q-27 -12 -60.5 -19.5t-66.5 -7.5q-215 0 -289 173q-21 53 -33 139.5t-12 206.5q0 277 94 393q81 98 238 98q143 0 221 -90q74 -83 74 -219h-115q0 97 -39 149q-47 64 -149 64
q-128 0 -176 -148q-13 -44 -20 -104.5t-7 -140.5q0 -189 21 -260q42 -164 182 -164q93 0 135 65q30 47 45 146l8 65h115z" />
    <glyph glyph-name="D" unicode="D" horiz-adv-x="811" 
d="M743 483q0 -108 -15 -188.5t-48 -140.5q-82 -154 -279 -154h-307v967h285q173 0 258 -88q106 -109 106 -396zM623 504q0 89 -11 155.5t-32 110.5q-50 100 -185 100h-186v-774h186q122 0 176 94q25 46 38.5 125.5t13.5 188.5z" />
    <glyph glyph-name="E" unicode="E" horiz-adv-x="655" 
d="M608 0h-524v967h522v-97h-407v-319h383v-96h-383v-359h409v-96z" />
    <glyph glyph-name="F" unicode="F" horiz-adv-x="578" 
d="M571 870h-372v-317h346v-96h-346v-457h-115v967h487v-97z" />
    <glyph glyph-name="G" unicode="G" horiz-adv-x="811" 
d="M721 -8h-88v151q-53 -166 -244 -166q-205 0 -283 170q-24 56 -37.5 144t-13.5 198q0 282 103 400q83 98 241 98q146 0 229 -81.5t83 -219.5h-117q0 96 -44.5 150.5t-143.5 54.5q-146 0 -201 -139q-31 -83 -31 -265q0 -191 21 -262q42 -151 178 -151q140 0 196 104
q37 73 37 221h-233v99h348v-506z" />
    <glyph glyph-name="H" unicode="H" horiz-adv-x="811" 
d="M721 0h-115v467h-401v-467h-115v967h115v-404h401v404h115v-967z" />
    <glyph glyph-name="I" unicode="I" horiz-adv-x="346" 
d="M231 0h-114v967h114v-967z" />
    <glyph glyph-name="J" unicode="J" horiz-adv-x="578" 
d="M494 240q0 -141 -70 -205q-59 -53 -178 -53q-69 0 -117.5 18.5t-83.5 71.5q-7 12 -15 37t-14 49q-6 48 -6 100v45h115v-57q0 -56 6.5 -88t22.5 -49q30 -31 94 -31q79 0 108 51q21 40 21 117v721h117v-727z" />
    <glyph glyph-name="K" unicode="K" horiz-adv-x="733" 
d="M741 0h-143l-283 467l-108 -131v-336h-117v967h115v-496l381 496h145l-334 -404z" />
    <glyph glyph-name="L" unicode="L" horiz-adv-x="655" 
d="M637 0h-543v967h117v-871h426v-96z" />
    <glyph glyph-name="M" unicode="M" horiz-adv-x="1042" 
d="M956 0h-114v797v123l-35 -129l-219 -791h-137l-220 801l-30 119v-125v-795h-115v967h203l207 -754q3 -13 9.5 -45t6.5 -33l4 -65l29 145l209 752h202v-967z" />
    <glyph glyph-name="N" unicode="N" horiz-adv-x="811" 
d="M723 0h-188l-295 774q-5 15 -9 30q-9 29 -14 42l-14 74v-148v-772h-115v967h188l295 -791l37 -106v108v789h115v-967z" />
    <glyph glyph-name="O" unicode="O" horiz-adv-x="811" 
d="M750 504q0 -246 -58 -365q-39 -81 -109.5 -121.5t-176.5 -40.5q-204 0 -287 162q-28 60 -43 150t-15 215q0 278 99 389q42 46 103.5 70t146.5 24q203 0 284 -158q56 -110 56 -325zM631 502q0 90 -11 158.5t-32 115.5q-56 115 -185 115q-123 0 -178 -113
q-22 -47 -33.5 -115.5t-11.5 -160.5q0 -230 39 -320q50 -108 187 -108q135 0 184 108q20 45 30.5 126.5t10.5 193.5z" />
    <glyph glyph-name="P" unicode="P" horiz-adv-x="733" 
d="M702 698q0 -86 -30 -151q-36 -71 -117 -109q-23 -10 -54.5 -17t-62.5 -7l-153 -4h-72v-410h-115v967h275q77 0 139.5 -12.5t105.5 -51.5q44 -36 64 -90.5t20 -114.5zM584 696q0 103 -72 146q-27 14 -69 21t-107 7h-123v-362h115q131 0 186 31q70 40 70 157z" />
    <glyph glyph-name="Q" unicode="Q" horiz-adv-x="811" 
d="M791 23l-60 -66l-117 90q-32 -29 -94 -49q-33 -10 -60 -15.5t-54 -5.5q-204 0 -287 162q-28 60 -43 150t-15 215q0 275 99 389q42 47 102 70.5t141 23.5q160 0 246 -92q103 -112 103 -391q0 -100 -13 -187q-18 -143 -69 -200zM633 463q0 119 -9.5 194.5t-31.5 122.5
q-50 111 -186 111t-185 -109q-19 -44 -30 -126t-11 -193q0 -182 43 -277q27 -55 71.5 -83.5t108.5 -28.5q39 0 64.5 6t60.5 31l-102 75l59 70l99 -72q14 24 31.5 115t17.5 164z" />
    <glyph glyph-name="R" unicode="R" horiz-adv-x="811" 
d="M766 0h-133q-14 36 -29 115q-4 31 -7 69t-3 62q0 41 -8 72.5t-27 54.5q-44 53 -141 53h-205v-426h-115v967h271q179 0 258 -54q94 -63 94 -221q0 -81 -55 -141q-54 -54 -146 -70q101 -9 135 -47q36 -35 50 -135q0 -46 1.5 -65t6.5 -56l14 -96l12 -43q5 -13 27 -16v-23z
M598 700q0 107 -80 148q-49 22 -141 22h-164v-348h184q72 0 121 25q80 42 80 153z" />
    <glyph glyph-name="S" unicode="S" horiz-adv-x="733" 
d="M682 266q0 -133 -86 -213q-43 -37 -102.5 -56.5t-135.5 -19.5q-45 0 -84 7t-73 22q-88 38 -129 125q-13 31 -19 70l-2 106h115q0 -120 33 -170q43 -63 166 -63q48 0 82 9.5t63 31.5q53 42 53 127q0 113 -67 149q-9 4 -41 16q-12 5 -62 21q-25 7 -60 18.5t-69 24.5
q-25 8 -39 14t-37 19q-34 15 -56.5 35.5t-39.5 50.5q-14 28 -21.5 61.5t-7.5 71.5q0 116 80 190t213 74q295 0 295 -274h-114q0 81 -41 129.5t-125 48.5q-109 0 -156 -57q-31 -42 -31 -117q0 -95 99 -131l166 -58q142 -48 190 -108q43 -52 43 -154z" />
    <glyph glyph-name="T" unicode="T" horiz-adv-x="655" 
d="M655 870h-268v-870h-115v870h-272v97h655v-97z" />
    <glyph glyph-name="U" unicode="U" horiz-adv-x="811" 
d="M721 233q0 -126 -84 -192q-41 -31 -99 -47.5t-132 -16.5q-145 0 -229.5 65t-84.5 191v734h115v-695q0 -44 6.5 -73.5t22.5 -53.5q45 -71 170 -71q123 0 167 69q31 46 31 129v695h117v-734z" />
    <glyph glyph-name="V" unicode="V" horiz-adv-x="733" 
d="M737 967l-299 -967h-145l-297 967h127l242 -889l245 889h127z" />
    <glyph glyph-name="W" unicode="W" horiz-adv-x="1120" 
d="M1116 967l-246 -967h-143l-139 657l-19 101q-12 74 -12 133l-16 -125q-3 -26 -7.5 -53.5t-11.5 -55.5l-153 -657h-142l-223 967h129l133 -666q0 -13 13 -84q6 -35 11 -68q2 -14 9 -71l18 121q8 52 19 94l151 674h146l137 -666q17 -92 31 -223q7 52 14.5 102t20.5 113
l151 674h129z" />
    <glyph glyph-name="X" unicode="X" horiz-adv-x="733" 
d="M731 0h-143l-221 406l-226 -406h-137l297 498l-291 469h137l220 -377l219 377h137l-289 -469z" />
    <glyph glyph-name="Y" unicode="Y" horiz-adv-x="733" 
d="M741 967l-317 -592v-375h-115v375l-313 592h127l244 -484l245 484h129z" />
    <glyph glyph-name="Z" unicode="Z" horiz-adv-x="655" 
d="M639 0h-621v92l494 778h-481v97h602v-93l-494 -778h500v-96z" />
    <glyph glyph-name="bracketleft" unicode="[" horiz-adv-x="424" 
d="M362 -270h-243v1237h243v-76h-135v-1081h135v-80z" />
    <glyph glyph-name="backslash" unicode="\" horiz-adv-x="307" 
d="M371 0h-82l-355 967h82z" />
    <glyph glyph-name="bracketright" unicode="]" horiz-adv-x="424" 
d="M305 -270h-244v80h136v1081h-136v76h244v-1237z" />
    <glyph glyph-name="asciicircum" unicode="^" horiz-adv-x="696" 
d="M602 430h-76l-178 436l-178 -436h-72l215 537h70z" />
    <glyph glyph-name="underscore" unicode="_" horiz-adv-x="696" 
d="M696 -178h-696v76h696v-76z" />
    <glyph glyph-name="grave" unicode="`" horiz-adv-x="424" 
d="M305 805h-94l-182 182h151z" />
    <glyph glyph-name="a" unicode="a" horiz-adv-x="578" 
d="M561 0l-26 -6q-77 0 -102.5 15t-37.5 87q-20 -47 -69 -82q-50 -32 -103 -32q-111 0 -154.5 51.5t-43.5 156.5q0 27 6 56q18 84 104 119l168 63q28 11 42.5 17t21.5 10q15 12 17.5 24.5t3.5 24t1 35.5q0 60 -29 86t-96 26q-70 0 -92 -28q-20 -32 -20 -99h-99
q0 213 230 213q111 0 166 -55q22 -24 33.5 -58t11.5 -81v-412q0 -46 18 -55l23 -2h12q6 0 14 2v-76zM379 213v174l-80 -37q-27 -11 -49.5 -21.5t-40.5 -19.5q-39 -14 -57 -49q-15 -33 -15 -74q0 -59 22.5 -88.5t86.5 -29.5q44 0 82 28q51 40 51 117z" />
    <glyph glyph-name="b" unicode="b" horiz-adv-x="655" 
d="M604 406q0 -101 -9 -170t-32 -119q-56 -135 -198 -135q-58 0 -100.5 21.5t-76.5 82.5l-4 -86h-100v967h111v-324q65 94 163 94q132 0 197 -110q49 -86 49 -221zM487 371q0 113 -20 174q-35 106 -127 106t-129 -92q-11 -32 -17 -74t-6 -102v-43q0 -124 17 -174
q30 -98 137 -98q79 0 113 73q32 78 32 230z" />
    <glyph glyph-name="c" unicode="c" horiz-adv-x="578" 
d="M543 250q0 -112 -51 -187q-60 -81 -181 -81q-81 0 -135.5 27.5t-87.5 86.5q-47 88 -47 254q0 169 45 258q62 129 223 129q110 0 170 -69t60 -176h-105q0 71 -22 108q-32 51 -105 51q-102 0 -137 -123q-8 -31 -12 -78t-4 -122q0 -52 5 -92.5t17 -71.5q35 -96 127 -96
q80 0 111 57q17 31 26 125h103z" />
    <glyph glyph-name="d" unicode="d" horiz-adv-x="655" 
d="M569 0h-104v94q-37 -61 -78 -88q-41 -24 -113 -24q-153 0 -204 165q-25 79 -25 213q0 88 12 152t41 115q62 110 181 110q103 0 178 -94l2 324h110v-967zM459 281v90q0 116 -19 176q-33 104 -131 104q-69 0 -108 -61q-43 -70 -43 -228q0 -148 20 -204q32 -90 135 -90
q72 0 115 75q31 58 31 138z" />
    <glyph glyph-name="e" unicode="e" horiz-adv-x="578" 
d="M530 350h-376v-47q0 -106 20 -156q31 -79 119 -79q71 0 104 55q25 43 25 117h102q0 -113 -55 -183q-63 -75 -180 -75q-116 0 -180 79q-70 94 -70 299q0 74 11 134t36 110q62 133 201 133q165 0 215 -129q28 -76 28 -258zM416 434q0 101 -15 139q-24 78 -112 78
q-81 0 -115 -76q-20 -53 -20 -141h262z" />
    <glyph glyph-name="f" unicode="f" horiz-adv-x="346" 
d="M340 631h-121v-631h-108v631h-113v86h111v61q0 24 0.5 46t3.5 38q3 26 24 53q38 56 144 56l30 -2q21 0 29 -2v-86l-23 2h-20q-36 0 -49 -9q-29 -15 -29 -81v-76h121v-86z" />
    <glyph glyph-name="g" unicode="g" horiz-adv-x="655" 
d="M571 86q0 -43 -2 -73.5t-7.5 -54t-16 -47t-31.5 -52.5q-32 -54 -88 -78q-51 -25 -123 -25q-96 0 -162 43q-56 42 -71 133h106q15 -90 123 -90q99 0 135 68q25 43 25 133v41q-65 -102 -170 -102q-118 0 -178 81q-70 96 -70 302q0 150 45 241q62 131 201 131
q118 0 172 -100l6 80h106v-631zM465 375q0 124 -31 190q-36 86 -125 86q-90 0 -131 -110q-22 -71 -22 -183q0 -139 30.5 -214.5t112.5 -75.5q106 0 145 110q21 66 21 197z" />
    <glyph glyph-name="h" unicode="h" horiz-adv-x="655" 
d="M578 0h-111v524q0 63 -27 94q-25 33 -90 33q-62 0 -110 -41q-12 -10 -22.5 -25.5t-16.5 -29.5q-3 -13 -5.5 -35.5t-2.5 -40.5v-479h-111v967h111v-328q41 48 85.5 73t106.5 25q92 0 141 -45q52 -44 52 -139v-553z" />
    <glyph glyph-name="i" unicode="i" horiz-adv-x="268" 
d="M190 838h-110v129h110v-129zM190 0h-110v717h110v-717z" />
    <glyph glyph-name="j" unicode="j" horiz-adv-x="268" 
d="M195 838h-111v129h111v-129zM195 -29q0 -127 -41 -172q-21 -22 -59.5 -33.5t-96.5 -11.5v94h12q20 0 35 5q19 0 27 16q3 5 5 13.5t5 17.5l2 39v24v754h111v-746z" />
    <glyph glyph-name="k" unicode="k" horiz-adv-x="578" 
d="M592 0h-127l-197 358l-84 -102v-256h-110v967h110v-584l269 334h131l-240 -279z" />
    <glyph glyph-name="l" unicode="l" horiz-adv-x="268" 
d="M190 0h-110v967h110v-967z" />
    <glyph glyph-name="m" unicode="m" horiz-adv-x="1042" 
d="M958 0h-110v524q0 63 -25 97q-24 30 -92 30q-30 0 -54.5 -9t-49.5 -32q-15 -11 -25 -25.5t-16 -31.5q-2 -11 -5 -34t-3 -40v-479h-111v524q0 62 -25 94.5t-92 32.5q-33 0 -58 -9t-48 -32q-15 -11 -24.5 -25.5t-13.5 -27.5t-6.5 -35t-2.5 -43v-479h-111v717h107v-90
q31 50 79 80t105 30q129 0 184 -114q47 59 90 86q51 28 119 28q81 0 141 -51q31 -27 43 -82q2 -13 3 -31t1 -55v-518z" />
    <glyph glyph-name="n" unicode="n" horiz-adv-x="655" 
d="M578 0h-111v524q0 63 -27 94q-25 33 -90 33q-62 0 -110 -41q-12 -10 -22.5 -25.5t-16.5 -29.5q-3 -13 -5.5 -35.5t-2.5 -40.5v-479h-111v717h106v-78q44 50 90 74t107 24q92 0 141 -45q52 -44 52 -139v-553z" />
    <glyph glyph-name="o" unicode="o" horiz-adv-x="655" 
d="M606 383q0 -222 -76 -317q-65 -84 -202 -84q-68 0 -117.5 20.5t-83.5 63.5q-37 47 -56.5 126.5t-19.5 190.5q0 165 68 259.5t209 94.5q142 0 209 -92q34 -46 51.5 -111.5t17.5 -150.5zM489 350q0 157 -36 232q-38 69 -125 69t-124.5 -68t-37.5 -233q0 -70 8 -122t27 -89
q36 -71 127 -71q45 0 77 18.5t52 58.5q15 33 23.5 86.5t8.5 118.5z" />
    <glyph glyph-name="p" unicode="p" horiz-adv-x="655" 
d="M604 406q0 -192 -45 -289q-62 -135 -205 -135q-28 0 -51 5t-41 17q-35 21 -72 72v-318h-110v959h104v-80q29 50 74 75t90 25q130 0 201 -110q55 -89 55 -221zM487 371q0 56 -5 98.5t-17 75.5q-38 106 -129 106q-111 0 -135 -153q-6 -41 -8.5 -69.5t-2.5 -68.5
q0 -134 15 -184q30 -108 133 -108q78 0 115 75q34 77 34 228z" />
    <glyph glyph-name="q" unicode="q" horiz-adv-x="655" 
d="M571 -238h-106v316q-77 -96 -170 -96q-120 0 -180 88q-28 45 -43 113.5t-15 164.5q0 151 43 254q59 135 187 135q28 0 53 -5t47 -17q42 -19 78 -72l2 74h104v-955zM465 360q0 131 -16 183q-32 108 -130 108q-95 0 -129 -108q-9 -33 -14.5 -90.5t-5.5 -124.5
q0 -119 31 -189.5t114 -70.5q74 0 112 64.5t38 227.5z" />
    <glyph glyph-name="r" unicode="r" horiz-adv-x="424" 
d="M428 625l-45 4q-85 0 -132.5 -53t-47.5 -142v-434h-111v717h107v-117q35 66 88 95.5t141 29.5v-100z" />
    <glyph glyph-name="s" unicode="s" horiz-adv-x="578" 
d="M537 201q0 -52 -17 -91.5t-55 -70.5q-69 -57 -189 -57q-54 0 -108.5 16.5t-83.5 54.5q-14 19 -23.5 37.5t-13 35.5t-6 41.5t-2.5 41.5h104q0 -71 28.5 -106t104.5 -35q70 0 109 26q37 28 37 94q0 72 -94 109q-33 10 -51 16t-46 17q-97 32 -139 69q-51 48 -51 136
q0 93 62 147.5t165 54.5q240 0 240 -213h-107q0 67 -26 97t-96 30q-123 0 -123 -108q0 -26 6.5 -44t21.5 -32q11 -10 129 -59q136 -57 154 -70q70 -48 70 -137z" />
    <glyph glyph-name="t" unicode="t" horiz-adv-x="346" 
d="M338 631h-129v-490q0 -37 6 -43q12 -12 45 -12h76v-86h-123q-33 0 -51.5 3.5t-30.5 12.5q-16 13 -24.5 38t-8.5 63v514h-106v86h106v194h109v-194h131v-86z" />
    <glyph glyph-name="u" unicode="u" horiz-adv-x="655" 
d="M569 0h-110v94q-59 -112 -185 -112q-186 0 -186 182v553h109v-557q0 -47 20 -70q22 -22 78 -22q85 0 133 63q4 7 11.5 25t11.5 30q3 14 5.5 34.5t2.5 35.5v461h110v-717z" />
    <glyph glyph-name="v" unicode="v" horiz-adv-x="578" 
d="M582 717l-236 -717h-119l-229 717h115l174 -631l180 631h115z" />
    <glyph glyph-name="w" unicode="w" horiz-adv-x="889" 
d="M885 717l-195 -717h-112l-134 631l-125 -631h-114l-199 717h115l139 -631l127 631h115l131 -631l137 631h115z" />
    <glyph glyph-name="x" unicode="x" horiz-adv-x="578" 
d="M588 0h-115l-182 287l-185 -287h-114l237 369l-223 348h115l172 -258l172 258h115l-224 -348z" />
    <glyph glyph-name="y" unicode="y" horiz-adv-x="578" 
d="M571 717l-229 -684q-7 -25 -15 -48t-20 -53q-22 -63 -35 -84q-63 -94 -178 -94q-38 0 -80 13v90q19 -7 38 -11t44 -4q65 0 97 43q10 28 20.5 54t19.5 45l-247 733h114l176 -621l181 621h114z" />
    <glyph glyph-name="z" unicode="z" horiz-adv-x="502" 
d="M489 0h-477v80l361 553h-344v84h456v-84l-358 -549h362v-84z" />
    <glyph glyph-name="braceleft" unicode="{" horiz-adv-x="342" 
d="M115 68v213q0 43 -6 67q-4 11 -14 22t-25 21l-35 17l-47 16q34 3 53.5 12t40.5 27q9 9 16 18t12 20.5t5 57.5v242q0 26 2 45.5t8 34.5q11 28 49 53q19 11 36.5 17t45.5 11t94 5q-73 -20 -98 -51.5t-25 -92.5v-241q0 -64 -30 -105q-29 -36 -109 -51q81 -18 115 -66
q24 -36 24 -114v-223q0 -52 25 -91q11 -14 35.5 -27t62.5 -26q-135 0 -185 39.5t-50 149.5z" />
    <glyph glyph-name="bar" unicode="|" horiz-adv-x="307" 
d="M199 0h-88v967h88v-967z" />
    <glyph glyph-name="braceright" unicode="}" horiz-adv-x="342" 
d="M258 381q-16 -16 -27 -41l-4 -55v-240q0 -26 -2 -45.5t-8 -34.5q-9 -29 -47 -52.5t-73.5 -29.5t-106.5 -6q75 18 98 53q27 35 27 93v241q0 69 26 105q29 36 113 51q-82 18 -113 59q-13 23 -19.5 52.5t-6.5 68.5v223q0 55 -27 88q-11 15 -35 28t-63 26q133 0 185 -39
t52 -148v-213q0 -43 6 -67q8 -23 39 -43q24 -21 78 -33q-29 -3 -51 -12.5t-41 -28.5z" />
    <glyph glyph-name="asciitilde" unicode="~" horiz-adv-x="655" 
d="M616 385q-31 -63 -63 -98q-45 -45 -98 -45q-31 0 -99 30l-57 27l-47 18q-30 13 -49 13q-47 0 -82 -54q-13 -19 -33 -61l-47 61q14 33 30 59q13 21 31 44q43 49 101 49q27 0 61 -14q15 -5 37 -14q12 -5 37 -17l49 -25q24 -10 38 -14t30 -6q19 0 35.5 8t31.5 27
q17 19 45 71z" />
    <glyph glyph-name="c128" horiz-adv-x="719" 
d="M711 881q0 -52 -43 -97q-42 -38 -103 -49q97 -105 97 -299q0 -195 -88 -315.5t-216 -120.5h-127l-73 375q-12 57 -84 57l88 84q79 0 94 -76l72 -358q84 0 149 80q72 93 72 258q0 141 -53 231q-59 97 -164 97q-74 0 -129 -46q-45 -35 -62 -88h-123q26 91 103 148
q88 67 219 67q26 0 49 -2t43 -8q8 0 28 -7q7 -2 36 -15l24 -4q32 0 49 26q14 18 14 44q0 12 -1 18h129z" />
    <glyph glyph-name="c129" 
d="M-233 911h-506v82h506v-82z" />
    <glyph glyph-name="quotesinglbase" unicode="&#x201a;" 
d="M-233 911h-506v82h397v103h109v-185z" />
    <glyph glyph-name="florin" unicode="&#x192;" 
d="M-190 1020q0 -40 -33 -78q-36 -31 -82 -31h-440v82h329l-4 27q0 44 35 76q32 32 80 32q46 0 82 -32q29 -30 33 -76zM-256 1020q0 18 -14 33q-13 11 -35 14q-19 0 -32.5 -13t-16.5 -34q0 -19 14 -33q11 -11 35 -14q15 0 33 14q13 10 16 33z" />
    <glyph glyph-name="quotedblbase" unicode="&#x201e;" 
d="M-233 911h-506v82h247v103h86v-103h64v103h109v-185z" />
    <glyph glyph-name="ellipsis" unicode="&#x2026;" horiz-adv-x="1311" 
d="M1143 0h-117v129h117v-129zM713 0h-117v129h117v-129zM285 0h-119v129h119v-129z" />
    <glyph glyph-name="dagger" unicode="&#x2020;" 
d="M-276 911h-109v205h109v-205z" />
    <glyph glyph-name="daggerdbl" unicode="&#x2021;" 
d="M-127 911h-330v37q0 38 -17.5 52t-86.5 14l47 88h59q111 0 111 -90v-19h217v-82z" />
    <glyph glyph-name="circumflex" unicode="&#x2c6;" 
d="M-90 1135q6 -23 6 -45q0 -66 -44 -116t-116 -63h-65v47q0 50 -35 56q0 -19 -25 -37q-26 -16 -59 -16q-18 0 -30.5 3.5t-24.5 12.5q-25 15 -31 37q-33 -3 -33 -56v-47h-96v58q0 127 135 127q0 -24 25 -45q10 -8 22.5 -11.5t32.5 -5.5q18 0 30 3.5t25 13.5q25 15 25 45
q63 0 98 -35q37 -34 37 -92q12 9 25 37q2 8 5 21t5 38q0 22 -3 36.5t-14 33.5h105z" />
    <glyph glyph-name="perthousand" unicode="&#x2030;" 
d="M-223 983h-96v-72h-109v72h-96v72h96v71h109v-71h96v-72z" />
    <glyph glyph-name="Scaron" unicode="&#x160;" 
d="M-213 1034h-76q-24 0 -39.5 -2t-23.5 -8q-19 -6 -19 -45v-31h-106v53q0 115 143 115h121v-82z" />
    <glyph glyph-name="guilsinglleft" unicode="&#x2039;" 
d="M-61 911h-109v205h109v-205z" />
    <glyph glyph-name="OE" unicode="&#x152;" 
d="M41 911h-330v37q0 38 -17.5 52t-86.5 14l47 88h59q111 0 111 -90v-19h217v-82z" />
    <glyph glyph-name="c141" 
d="M-23 1135q7 -21 7 -45q0 -64 -44 -115t-114 -64h-68v47q0 50 -32 56q0 -18 -25 -37q-26 -16 -59 -16q-18 0 -30.5 3.5t-25.5 12.5q-24 15 -30 37q-33 0 -33 -56v-47h-96v58q0 127 135 127q0 -24 24 -45q11 -8 23.5 -11.5t32.5 -5.5q18 0 30 3.5t25 13.5q19 16 22 45
q62 0 100 -35t38 -92q32 26 32 98q0 19 -3 35.5t-11 32.5h102z" />
    <glyph glyph-name="c142" 
d="M35 983h-96v-72h-109v72h-96v72h96v71h109v-71h96v-72z" />
    <glyph glyph-name="c143" 
d="M-27 997h-73q-25 0 -40 -2t-24 -8q-18 -9 -18 -45v-31h-109v54q0 114 146 114h118v-82z" />
    <glyph glyph-name="c144" horiz-adv-x="1145" 
d="M1083 215q0 -108 -76 -166.5t-192 -58.5q-59 0 -106.5 14t-87.5 45q-76 59 -76 166v363q0 72 -50.5 121t-129.5 49q-67 0 -113.5 -32t-71.5 -81l80 -57q-31 -8 -55.5 -35.5t-24.5 -67.5v-393h103l-33 -82h-178v463q0 34 24 72q18 22 45 34l-84 58q14 42 37.5 74.5
t65.5 62.5q86 65 205 65q121 0 204.5 -66t83.5 -179v-363q0 -73 45.5 -111t116.5 -38q69 0 115 37q22 19 33.5 46t11.5 66v598h108v-604z" />
    <glyph glyph-name="quoteleft" unicode="&#x2018;" horiz-adv-x="291" 
d="M231 741q0 -33 -22 -55q-9 -9 -23.5 -14.5t-31.5 -7.5q-46 0 -69.5 29t-23.5 73q0 63 33 113q35 46 86 69l29 -28q-35 -13 -64 -43q-13 -15 -19.5 -31t-6.5 -35q10 5 35 8q33 0 53.5 -21t23.5 -57z" />
    <glyph glyph-name="quoteright" unicode="&#x2019;" horiz-adv-x="291" 
d="M231 846q0 -66 -32.5 -112.5t-85.5 -69.5l-29 28q18 6 33.5 16.5t29.5 26.5q27 30 27 66q-10 -5 -35 -8q-33 0 -54 21t-24 56q0 32 23 56q9 9 23.5 14.5t31.5 7.5q44 0 68 -28.5t24 -73.5z" />
    <glyph glyph-name="quotedblleft" unicode="&#x201c;" horiz-adv-x="516" 
d="M455 741q0 -33 -23 -55q-9 -9 -23.5 -14.5t-31.5 -7.5q-44 0 -68 28.5t-24 73.5q0 65 32 113q34 45 86 69l29 -28q-37 -14 -63.5 -43.5t-26.5 -65.5q10 5 35 8q33 0 54 -21.5t24 -56.5zM229 741q0 -33 -22 -55q-9 -9 -23.5 -14.5t-31.5 -7.5q-46 0 -69.5 29t-23.5 73
q0 63 33 113q35 46 86 69l29 -28q-35 -13 -64 -43q-13 -15 -19.5 -31t-6.5 -35q10 5 35 8q32 0 55 -22q19 -20 22 -56z" />
    <glyph glyph-name="quotedblright" unicode="&#x201d;" horiz-adv-x="516" 
d="M457 846q0 -65 -33 -112t-86 -70l-29 28q17 5 33 16t30 26.5t20.5 31.5t6.5 35q-10 -5 -34 -8q-16 0 -30 5.5t-24.5 15.5t-16 24.5t-7.5 31.5q0 16 5.5 30t16.5 26q20 19 56 22q45 0 67 -28q25 -28 25 -74zM231 846q0 -66 -32.5 -112.5t-85.5 -69.5l-29 28
q18 6 33.5 16.5t29.5 26.5q27 30 27 66q-10 -5 -35 -8q-33 0 -54 21t-24 56q0 32 23 56q9 9 23.5 14.5t31.5 7.5q44 0 68 -28.5t24 -73.5z" />
    <glyph glyph-name="bullet" unicode="&#x2022;" horiz-adv-x="635" 
d="M573 410q0 -104 -74 -180t-182 -76q-103 0 -179.5 73.5t-76.5 182.5q0 103 74 180q36 36 82 56t100 20q104 0 180 -75.5t76 -180.5z" />
    <glyph glyph-name="endash" unicode="&#x2013;" horiz-adv-x="696" 
d="M696 283h-696v90h696v-90z" />
    <glyph glyph-name="emdash" unicode="&#x2014;" horiz-adv-x="1393" 
d="M1393 283h-1393v90h1393v-90z" />
    <glyph glyph-name="tilde" unicode="&#x2dc;" 
d="M8 911h-516v166h109v-84h407v-82z" />
    <glyph glyph-name="trademark" unicode="&#x2122;" 
d="M-184 1020q0 -20 -7.5 -39.5t-23.5 -38.5q-33 -31 -78 -31q-21 0 -39.5 8t-36.5 23q-15 16 -23.5 35.5t-8.5 42.5q0 43 32 76q16 15 35 23.5t41 8.5q42 0 78 -32q31 -33 31 -76zM-246 1020q0 18 -12.5 31t-34.5 16q-18 0 -33 -14q-11 -12 -14 -33q0 -19 13 -31.5
t34 -15.5q19 0 31.5 12.5t15.5 34.5z" />
    <glyph glyph-name="scaron" unicode="&#x161;" 
d="M-190 997l-41 -86h-111q-67 0 -100 52q-18 -24 -47 -38t-82 -14h-123v101q0 33 12.5 59t40.5 47q50 41 135 41h121q76 0 76 53v29h106v-47q0 -55 -30 -82q-15 -12 -43 -19.5t-62 -7.5h-154q-94 0 -94 -61v-27q67 0 90 9q24 6 54 47q21 -31 53 -45q28 -11 78 -11h121z" />
    <glyph glyph-name="guilsinglright" unicode="&#x203a;" 
d="M-233 1157h-109v143h109v-143z" />
    <glyph glyph-name="oe" unicode="&#x153;" 
d="M-100 1157h-295v33q0 37 -17.5 48t-76.5 11l43 80h53q98 0 98 -82v-16h195v-74z" />
    <glyph glyph-name="c157" 
d="M-10 1358l4 -39q0 -29 -9 -54.5t-30.5 -50.5t-46.5 -39t-55 -18h-62v43q0 43 -31 49q0 -18 -22 -32q-16 -12 -51 -15q-26 0 -50.5 13.5t-27.5 33.5q-31 -3 -31 -49v-43h-86v51q0 115 121 115q0 -22 22 -39q19 -13 52 -16q25 0 49 14q17 14 20 41q123 0 123 -115
q31 25 31 90q0 28 -12 60h92z" />
    <glyph glyph-name="c158" 
d="M-154 1223h-88v-66h-94v66h-88v63h88v66h94v-66h88v-63z" />
    <glyph glyph-name="Ydieresis" unicode="&#x178;" 
d="M-170 1155h-70q-25 0 -35.5 -1.5t-19.5 -6.5q-16 -6 -16 -41v-27h-99v47q0 103 134 103h106v-74z" />
    <glyph glyph-name="nonbreakingspace" unicode="&#xa0;" horiz-adv-x="696" 
 />
    <glyph glyph-name="exclamdown" unicode="&#xa1;" horiz-adv-x="715" 
d="M653 0h-108v578q0 72 -50.5 121t-129.5 49q-67 0 -113.5 -32t-71.5 -81l80 -57q-31 -8 -55.5 -35.5t-24.5 -67.5v-475h-108v463q0 34 24 72q18 22 45 34l-84 58q14 42 37.5 74.5t65.5 62.5q86 65 205 65q121 0 204.5 -66t83.5 -179v-584z" />
    <glyph glyph-name="cent" unicode="&#xa2;" horiz-adv-x="662" 
d="M600 215q0 -104 -74 -164.5t-194 -60.5q-125 0 -198 58t-73 167v295q0 58 68 86.5t68 69.5v10q0 17 -3.5 27t-13.5 18q-16 16 -59 16h-64l56 82h65q68 0 96.5 -28.5t28.5 -88.5v-43q0 -57 -67 -94q-66 -31 -66 -71v-271q0 -80 43 -117q45 -34 119 -34t117 37t43 114v596
h108v-604z" />
    <glyph glyph-name="sterling" unicode="&#xa3;" horiz-adv-x="684" 
d="M621 215q0 -104 -72.5 -164.5t-196.5 -60.5q-61 0 -108 14t-86 45q-74 59 -74 166v338q0 26 6 46.5t21 41.5q19 25 51 53q-18 -5 -53 -8q-91 0 -129 72l67 71q18 -55 105 -55q75 0 106 55l78 -73l-92 -86q-54 -57 -54 -117v-330q0 -79 43 -117q45 -34 119 -34t117 37
q22 18 33.5 46.5t11.5 67.5v596h107v-604z" />
    <glyph glyph-name="currency" unicode="&#xa4;" horiz-adv-x="715" 
d="M653 0h-108v578q0 80 -47 124q-24 22 -57.5 34t-78.5 12q-81 0 -131.5 -44.5t-50.5 -125.5v-123q23 30 51 43q17 7 37.5 10.5t46.5 3.5h123v-92h-131q-55 0 -92 -25q-35 -22 -35 -73v-322h-108v584q0 111 79.5 178t210.5 67q127 0 209 -66t82 -179v-584z" />
    <glyph glyph-name="yen" unicode="&#xa5;" horiz-adv-x="737" 
d="M674 0h-107v616q0 46 -17.5 75.5t-43.5 39.5q-17 -34 -51 -59q-16 -10 -36.5 -15.5t-45.5 -5.5q-23 0 -42.5 5t-37.5 18q-29 19 -51 57q-25 -6 -43 -37q-19 -29 -19 -78v-161q23 30 51 43q17 7 37.5 10.5t46.5 3.5h123v-92h-131q-55 0 -92 -25q-35 -22 -35 -73v-322h-108
v635q0 84 55 139t149 55q0 -30 25 -61q12 -12 30.5 -19.5t41.5 -7.5q41 0 69.5 26t28.5 62q93 0 148 -55.5t55 -138.5v-635z" />
    <glyph glyph-name="brokenbar" unicode="&#xa6;" horiz-adv-x="748" 
d="M686 223q0 -105 -70.5 -169t-173.5 -64q-81 0 -137 33q-27 16 -49.5 38.5t-42.5 53.5v-45q0 -23 -8.5 -40.5t-26.5 -29.5h-129q23 13 31 25q24 24 24 69v500q0 68 35 100q-18 -6 -39 -6q-78 0 -120 70l67 71q18 -55 92 -55q67 0 99 55l77 -75q-19 -12 -35.5 -25.5
t-29.5 -26.5q-37 -38 -37 -92v-344q0 -81 66 -137q34 -28 68 -42.5t69 -14.5q68 0 115 45.5t47 124.5v577h108v-596z" />
    <glyph glyph-name="section" unicode="&#xa7;" horiz-adv-x="700" 
d="M639 436q0 -234 -51 -335t-172 -101h-226l-167 791l104 28l160 -737h88q84 0 121 74q15 36 23.5 108t8.5 168q0 187 -36 246q-19 29 -53.5 44t-86.5 15h-61l53 82h68q137 0 186 -94q41 -80 41 -289z" />
    <glyph glyph-name="dieresis" unicode="&#xa8;" horiz-adv-x="719" 
d="M662 436q0 -195 -88 -315.5t-216 -120.5h-127l-73 375q-12 57 -84 57l88 84q79 0 94 -76l72 -358q84 0 149 80q72 93 72 258q0 141 -53 231q-59 97 -164 97q-74 0 -129 -46q-45 -35 -62 -88h-123q26 91 103 148q88 67 219 67q146 0 233 -106q44 -53 66.5 -124.5
t22.5 -162.5z" />
    <glyph glyph-name="copyright" unicode="&#xa9;" horiz-adv-x="727" 
d="M711 0h-129q-35 21 -35 70v43q-31 -61 -92 -95q-31 -14 -60.5 -21t-66.5 -7q-107 0 -180.5 62.5t-73.5 174.5v150q0 34 -15 53q-11 17 -43 41h129q35 -21 35 -70v-149q0 -87 47 -135q51 -45 135 -45q79 0 134 55q24 27 37.5 62.5t13.5 76.5v297q0 87 -50.5 136t-138.5 49
q-71 0 -127 -39q-49 -39 -61 -95h-123q12 85 100 152q45 31 96 47t113 16q126 0 211.5 -65.5t85.5 -181.5v-488q0 -36 15 -55q12 -19 43 -39z" />
    <glyph glyph-name="ordfeminine" unicode="&#xaa;" horiz-adv-x="662" 
d="M600 215q0 -104 -74 -164.5t-194 -60.5q-125 0 -198 58t-73 167v604h109v-596q0 -80 43 -117q45 -34 119 -34t117 37t43 114v215q0 62 -44 98.5t-124 36.5h-68v82h68q74 0 121 28.5t47 84.5v51h108v-57q0 -63 -49 -103q-25 -18 -56.5 -29t-72.5 -16q38 0 69.5 -11
t57.5 -36q51 -43 51 -112v-240z" />
    <glyph glyph-name="guillemotleft" unicode="&#xab;" horiz-adv-x="684" 
d="M621 215q0 -104 -72.5 -164.5t-196.5 -60.5q-61 0 -108 14t-86 45q-74 59 -74 166v338q0 26 6 46.5t21 41.5q19 25 51 53q-18 -5 -53 -8q-91 0 -129 72l67 71q18 -55 105 -55q75 0 106 55l78 -73l-92 -86q-54 -57 -54 -117v-330q0 -79 43 -117q45 -34 119 -34t117 37
q22 18 33.5 46.5t11.5 67.5v215q0 63 -44.5 99t-125.5 36h-45v82h45q73 0 121.5 30t48.5 83v51h107v-57q0 -59 -50 -103q-43 -34 -129 -45q41 0 73 -11t56 -36q50 -42 50 -112v-240z" />
    <glyph glyph-name="logicalnot" unicode="&#xac;" horiz-adv-x="1145" 
d="M1083 203q0 -100 -61 -156.5t-160 -56.5q-75 0 -123 26q-24 14 -44.5 32t-41.5 46v-24q0 -50 -35 -70h-129q22 12 31 25q25 24 25 69v484q0 72 -50.5 121t-129.5 49q-67 0 -113.5 -32t-71.5 -81l80 -57q-31 -8 -55.5 -35.5t-24.5 -67.5v-393h103l-33 -82h-178v463
q0 34 24 72q18 22 45 34l-84 58q14 42 37.5 74.5t65.5 62.5q86 65 205 65q121 0 204.5 -66t83.5 -179v-338q0 -77 55.5 -125.5t125.5 -48.5q36 0 62 8t44 26q35 35 35 115v598h108v-616z" />
    <glyph glyph-name="minus" unicode="&#xad;" horiz-adv-x="1145" 
d="M1083 84q0 -130 -51 -193q-63 -75 -209 -75h-284l49 82h223q164 0 164 149q-17 -22 -74 -41q-53 -16 -100 -16q-53 0 -96 11t-78 36q-82 56 -82 158v383q0 72 -50.5 121t-129.5 49q-67 0 -113.5 -32t-71.5 -81l80 -57q-31 -8 -55.5 -35.5t-24.5 -67.5v-393h103l-33 -82
h-178v463q0 34 24 72q18 22 45 34l-84 58q14 42 37.5 74.5t65.5 62.5q86 65 205 65q121 0 204.5 -66t83.5 -179v-377q0 -68 52 -105q42 -30 110 -30t114 32.5t46 102.5v612h108v-735z" />
    <glyph glyph-name="registered" unicode="&#xae;" horiz-adv-x="727" 
d="M664 -287h-109q-43 64 -135 94q-17 -19 -32.5 -33t-40 -28t-41.5 -21t-36 -10l-57 -4q-75 0 -129 37v105q25 -29 68 -50q17 -7 36.5 -9.5t53.5 -2.5q47 0 89 35.5t56 77.5q54 -6 96 -27q43 -18 74 -49v750q0 73 -51 120q-50 50 -129 50q-67 0 -117 -33q-44 -30 -70 -80
l80 -57q-31 -8 -57 -37q-18 -22 -23 -66v-475h-145l-53 82h92v381q0 35 25 72q17 22 45 34l-84 58q21 80 102 137q89 65 205 65q122 0 204.5 -67t82.5 -178v-871z" />
    <glyph glyph-name="macron" unicode="&#xaf;" horiz-adv-x="727" 
d="M664 -287h-209q0 28 -27 54q-25 22 -61 22q-35 0 -62 -20q-21 -20 -29 -56h-192v86h164q12 36 41 54t78 18q38 0 69 -21q32 -18 43 -51h78v779q0 73 -51 120q-50 50 -129 50q-67 0 -117 -33q-44 -30 -70 -80l80 -57q-31 -8 -57 -37q-18 -22 -23 -66v-475h-145l-53 82h92
v381q0 35 25 72q17 22 45 34l-84 58q21 80 102 137q89 65 205 65q122 0 204.5 -67t82.5 -178v-871z" />
    <glyph glyph-name="degree" unicode="&#xb0;" horiz-adv-x="719" 
d="M711 881q0 -52 -43 -97q-42 -38 -103 -49q97 -105 97 -299q0 -195 -88 -315.5t-216 -120.5h-127l-73 375q-12 57 -84 57l88 84q79 0 94 -76l72 -358q84 0 149 80q72 93 72 258q0 141 -53 231q-59 97 -164 97q-74 0 -129 -46q-45 -35 -62 -88h-123q26 91 103 148
q88 67 219 67q26 0 49 -2t43 -8q8 0 28 -7q7 -2 36 -15l24 -4q32 0 49 26q14 18 14 44q0 12 -1 18h129zM621 -246h-209q0 29 -26 52.5t-62 23.5q-35 0 -62 -20q-21 -20 -29 -56h-172v86h144q12 36 41 54t78 18q38 0 69 -21q32 -18 43 -51h78v99h107v-185z" />
    <glyph glyph-name="plusminus" unicode="&#xb1;" horiz-adv-x="748" 
d="M686 0h-108v575q0 35 -5 65.5t-14 55.5q-16 39 -63 39q-56 -6 -158 -282q-98 -272 -125 -453h-109v553q0 112 35 141l-22 -6l-23 -2q-73 0 -114 72l67 71q18 -55 92 -55q67 0 99 55l75 -73l-69 -70q-31 -43 -31 -133v-211q22 92 47 165t57 138q87 184 185 184
q94 0 139 -57t45 -160v-612z" />
    <glyph glyph-name="twosuperior" unicode="&#xb2;" horiz-adv-x="1167" 
d="M1104 203q0 -99 -61.5 -156t-159.5 -57q-73 0 -121 26q-25 14 -45.5 32t-42.5 46v-24q0 -50 -33 -70h-129q21 16 41 39q14 21 14 55v522q0 46 -17.5 75.5t-43.5 39.5q-17 -34 -51 -59q-16 -10 -36.5 -15.5t-45.5 -5.5q-23 0 -42.5 5t-37.5 18q-29 19 -51 57
q-25 -6 -43 -37q-19 -29 -19 -78v-438l191 301h-119l35 82h196v-82l-303 -479h-108v635q0 84 55 139t149 55q0 -30 25 -61q12 -12 30.5 -19.5t41.5 -7.5q41 0 69.5 26t28.5 62q93 0 148 -55.5t55 -138.5v-389q0 -38 14.5 -70.5t44.5 -58.5q54 -45 123 -45q72 0 107 34
q16 17 25 45.5t9 69.5v598h107v-616z" />
    <glyph glyph-name="threesuperior" unicode="&#xb3;" horiz-adv-x="1145" 
d="M1139 0h-129q-35 24 -35 70v22q-14 -33 -68 -72q-50 -30 -129 -30q-99 0 -162 51q-71 59 -71 166v371q0 72 -50.5 121t-129.5 49q-67 0 -113.5 -32t-71.5 -81l80 -57q-31 -8 -55.5 -35.5t-24.5 -67.5v-393h103l-33 -82h-178v463q0 34 24 72q18 22 45 34l-84 58
q14 42 37.5 74.5t65.5 62.5q86 65 205 65q121 0 204.5 -66t83.5 -179v-355q0 -81 49 -125q20 -15 47.5 -23.5t59.5 -8.5q34 0 63 11t54 36q49 47 49 127v573h108v-725q0 -18 3.5 -30.5t13.5 -26.5q6 -10 14 -17.5t25 -19.5z" />
    <glyph glyph-name="acute" unicode="&#xb4;" horiz-adv-x="737" 
d="M674 0h-107v578q0 79 -53 122q-51 48 -141 48q-88 0 -142 -48q-24 -21 -37.5 -52t-13.5 -70v-400l191 301h-119l35 82h196v-82l-303 -479h-108v584q0 112 82 178.5t219 66.5q135 0 218 -66.5t83 -178.5v-584z" />
    <glyph glyph-name="mu" unicode="&#xb5;" horiz-adv-x="737" 
d="M674 0h-107v616q0 46 -17.5 75.5t-43.5 39.5q-17 -34 -51 -59q-16 -10 -36.5 -15.5t-45.5 -5.5q-23 0 -42.5 5t-37.5 18q-29 19 -51 57q-25 -6 -43 -37q-19 -29 -19 -78v-438l191 301h-119l35 82h196v-82l-303 -479h-108v635q0 84 55 139t149 55q0 -30 25 -61
q12 -12 30.5 -19.5t41.5 -7.5q41 0 69.5 26t28.5 62q93 0 148 -55.5t55 -138.5v-635z" />
    <glyph glyph-name="paragraph" unicode="&#xb6;" horiz-adv-x="715" 
d="M653 0h-108v578q0 72 -50.5 121t-129.5 49q-67 0 -113.5 -32t-71.5 -81l80 -57q-31 -8 -55.5 -35.5t-24.5 -67.5v-393h103l-33 -82h-178v463q0 34 24 72q18 22 45 34l-84 58q14 42 37.5 74.5t65.5 62.5q86 65 205 65q121 0 204.5 -66t83.5 -179v-584z" />
    <glyph glyph-name="periodcentered" unicode="&#xb7;" horiz-adv-x="715" 
d="M653 0h-108v557q0 191 -160 191q-81 0 -143 -57.5t-62 -137.5v-553h-108v725q0 33 -11.5 51t-44.5 43h129q35 -21 35 -69v-43q25 41 80 77q35 22 76 33.5t86 11.5q107 0 169 -62t62 -185v-582z" />
    <glyph glyph-name="periodcentered" unicode="&#x2219;" horiz-adv-x="715" 
d="M653 0h-108v557q0 191 -160 191q-81 0 -143 -57.5t-62 -137.5v-553h-108v725q0 33 -11.5 51t-44.5 43h129q35 -21 35 -69v-43q25 41 80 77q35 22 76 33.5t86 11.5q107 0 169 -62t62 -185v-582z" />
    <glyph glyph-name="cedilla" unicode="&#xb8;" horiz-adv-x="705" 
d="M643 215q0 -105 -81 -165t-210 -60q-64 0 -115.5 14t-93.5 45q-82 60 -82 166v195h109v-187q0 -76 51.5 -113.5t130.5 -37.5q75 0 125 34q58 42 58 117v94q0 73 -50 111q-42 33 -152.5 43.5t-168.5 36.5q-107 44 -107 125q0 86 83.5 141t201.5 55q60 0 110.5 -14
t92.5 -45q80 -59 98 -156h-113q-9 57 -60.5 95.5t-123.5 38.5q-65 0 -119 -31q-24 -16 -37.5 -35t-13.5 -41q0 -30 49 -55q22 -10 64 -18.5t100 -16.5q53 0 100 -16q39 -13 77 -39t57.5 -62.5t19.5 -83.5v-135z" />
    <glyph glyph-name="onesuperior" unicode="&#xb9;" horiz-adv-x="705" 
d="M698 0h-129q-34 25 -34 70v43q-12 -25 -27.5 -45t-38.5 -35q-61 -43 -154 -43q-110 0 -178 65q-76 73 -76 193v571h109v-547q0 -200 182 -200q42 0 73.5 12t57.5 41q52 58 52 141v553h108v-725q0 -18 3.5 -30.5t11.5 -25t16 -20t24 -18.5z" />
    <glyph glyph-name="ordmasculine" unicode="&#xba;" horiz-adv-x="705" 
d="M643 236q0 -111 -81 -178.5t-210 -67.5q-128 0 -209 65q-41 35 -61.5 79t-20.5 102v583h109v-577q0 -78 47 -125q51 -45 135 -45t133 45q50 42 50 125v577h108v-583z" />
    <glyph glyph-name="guillemotright" unicode="&#xbb;" horiz-adv-x="705" 
d="M643 236q0 -111 -81 -178.5t-210 -67.5q-128 0 -209 65q-41 35 -61.5 79t-20.5 102v583h109v-577q0 -78 47 -125q51 -45 135 -45t133 45q50 42 50 125v823h108v-829z" />
    <glyph glyph-name="onequarter" unicode="&#xbc;" horiz-adv-x="788" 
d="M727 154q0 -83 -57 -127q-49 -37 -129 -37q-103 0 -146 67q-9 -14 -23.5 -27t-35.5 -22q-41 -18 -86 -18q-41 0 -72.5 8t-56.5 27q-60 43 -60 129v665h158l49 -92h-98v-573q0 -22 5 -38t18 -26q24 -18 63 -18q33 0 58.5 19t25.5 63v665h109v-665q0 -41 24 -62
q12 -9 28.5 -14.5t33.5 -5.5q35 0 59 18t24 64v665h109v-665z" />
    <glyph glyph-name="onehalf" unicode="&#xbd;" horiz-adv-x="788" 
d="M727 154q0 -83 -57 -127q-49 -37 -129 -37q-103 0 -146 67q-9 -14 -23.5 -27t-35.5 -22q-41 -18 -86 -18q-41 0 -72.5 8t-56.5 27q-60 43 -60 129v665h158l49 -92h-98v-573q0 -22 5 -38t18 -26q24 -18 63 -18q33 0 58.5 19t25.5 63v665h109v-665q0 -41 24 -62
q12 -9 28.5 -14.5t33.5 -5.5q35 0 59 18t24 64v911h109v-911z" />
    <glyph glyph-name="threequarters" unicode="&#xbe;" horiz-adv-x="788" 
d="M727 154q0 -83 -57 -127q-49 -37 -129 -37q-103 0 -146 67q-9 -14 -23.5 -27t-35.5 -22q-41 -18 -86 -18q-41 0 -72.5 8t-56.5 27q-60 43 -60 129v665h109v-665q0 -22 5 -38t18 -26q24 -18 63 -18q33 0 58.5 19t25.5 63v665h109v-665q0 -41 24 -62q12 -9 28.5 -14.5
t33.5 -5.5q35 0 59 18t24 64v665h109v-665z" />
    <glyph glyph-name="questiondown" unicode="&#xbf;" horiz-adv-x="788" 
d="M727 154q0 -83 -57 -127q-49 -37 -129 -37q-103 0 -146 67q-9 -14 -23.5 -27t-35.5 -22q-41 -18 -86 -18q-41 0 -72.5 8t-56.5 27q-60 43 -60 129v665h109v-665q0 -22 5 -38t18 -26q24 -18 63 -18q33 0 58.5 19t25.5 63v665h109v-665q0 -41 24 -62q12 -9 28.5 -14.5
t33.5 -5.5q35 0 59 18t24 64v911h109v-911z" />
    <glyph glyph-name="Agrave" unicode="&#xc0;" horiz-adv-x="727" 
d="M664 0h-107v578q0 73 -51 120q-50 50 -129 50q-67 0 -117 -33q-44 -30 -70 -80l80 -57q-31 -8 -57 -37q-18 -22 -23 -66v-475h-145l-53 82h92v381q0 35 25 72q17 22 45 34l-84 58q21 80 102 137q89 65 205 65q122 0 204.5 -67t82.5 -178v-584z" />
    <glyph glyph-name="Aacute" unicode="&#xc1;" horiz-adv-x="715" 
d="M653 223q0 -105 -70 -169t-173 -64q-82 0 -137 33t-93 92v-45q0 -23 -8.5 -40.5t-26.5 -29.5h-129q22 12 31 25q25 25 25 69v725h108v-553q0 -80 66 -137q34 -28 68 -42.5t69 -14.5q67 0 114.5 46t47.5 124v577h108v-596z" />
    <glyph glyph-name="Acircumflex" unicode="&#xc2;" horiz-adv-x="705" 
d="M643 236q0 -111 -81 -178.5t-210 -67.5q-67 0 -117.5 15t-93.5 50q-80 68 -80 181v61q0 64 43 121q44 53 115 53q-67 0 -113 43q-22 22 -33.5 50.5t-11.5 64.5q0 75 59 132.5t146 57.5h88l58 -86h-111q-131 0 -131 -110q0 -58 55 -88q44 -23 115 -23l66 4v-86h-66
q-77 0 -123.5 -38t-46.5 -97v-53q0 -78 47 -125q51 -45 135 -45t133 45q50 42 50 125v577h108v-583z" />
    <glyph glyph-name="Atilde" unicode="&#xc3;" horiz-adv-x="680" 
d="M631 240q0 -121 -78 -185.5t-207 -64.5q-136 0 -215.5 67.5t-79.5 192.5h119q0 -39 9.5 -69.5t33.5 -57.5q52 -49 129 -49q39 0 68 9t57 32q51 40 51 108q0 67 -52 108.5t-157 65.5q-51 12 -90.5 27.5t-68.5 38.5q-76 56 -76 143q0 51 18.5 90t59.5 70q81 63 190 63
t188.5 -59.5t79.5 -155.5h-110q0 55 -47 95q-23 18 -52 28.5t-59 10.5q-58 0 -109 -37q-47 -39 -47 -93q0 -61 58 -98q45 -26 152 -49.5t167 -77.5q68 -62 68 -153z" />
    <glyph glyph-name="Adieresis" unicode="&#xc4;" horiz-adv-x="715" 
d="M653 -287h-108v865q0 72 -50.5 121t-129.5 49q-67 0 -113.5 -32t-71.5 -81l80 -57q-31 -8 -55.5 -35.5t-24.5 -67.5v-393h103l-33 -82h-178v463q0 34 24 72q18 22 45 34l-84 58q14 42 37.5 74.5t65.5 62.5q86 65 205 65q121 0 204.5 -66t83.5 -179v-871z" />
    <glyph glyph-name="Aring" unicode="&#xc5;" horiz-adv-x="700" 
d="M639 0h-109v461q-27 -23 -94 -45l-117 -31q-68 -14 -110.5 -56t-42.5 -110q0 -66 53 -100.5t135 -34.5h15q22 0 34 4l29 4l-59 -92l-33 -2q-18 0 -25 -2q-59 0 -106.5 14t-85.5 45q-72 63 -72 170q0 90 62.5 152.5t167.5 89.5q67 15 106 26t53 17q86 37 86 106
q0 56 -44 94t-113 38q-68 0 -119 -38t-51 -96h-123q12 92 91.5 153.5t194.5 61.5q59 0 108 -14t89 -45q80 -59 80 -164v-606z" />
    <glyph glyph-name="AE" unicode="&#xc6;" horiz-adv-x="727" 
d="M664 -287h-107v865q0 73 -51 120q-50 50 -129 50q-67 0 -117 -33q-44 -30 -70 -80l80 -57q-31 -8 -57 -37q-18 -22 -23 -66v-475h-145l-53 82h92v381q0 35 25 72q17 22 45 34l-84 58q21 80 102 137q89 65 205 65q122 0 204.5 -67t82.5 -178v-871z" />
    <glyph glyph-name="Ccedilla" unicode="&#xc7;" horiz-adv-x="651" 
d="M610 410q0 -220 -75 -320q-38 -49 -93 -74.5t-129 -25.5q-123 0 -202.5 61t-79.5 174h112q0 -36 14 -63.5t42 -50.5q47 -39 114 -39q48 0 82.5 18.5t59.5 59.5q23 41 35 105t12 155q0 175 -48 256.5t-141 81.5q-129 0 -161 -134h-115q15 93 92.5 154t183.5 61
q148 0 224 -100q73 -97 73 -319z" />
    <glyph glyph-name="Egrave" unicode="&#xc8;" horiz-adv-x="727" 
d="M733 881q0 -48 -41 -82q-33 -29 -108 -47q31 -33 51 -74q18 -41 18 -94v-584h-108v578q0 80 -47 124q-24 22 -57.5 34t-78.5 12q-81 0 -131.5 -44.5t-50.5 -125.5v-123q23 30 51 43q17 7 37.5 10.5t46.5 3.5h123v-92h-131q-55 0 -92 -25q-35 -22 -35 -73v-322h-108v584
q0 111 79.5 178t210.5 67q49 0 84 -8q35 -6 37 -6q19 -4 41 -10q32 0 58 18q22 20 22 58h129z" />
    <glyph glyph-name="Eacute" unicode="&#xc9;" horiz-adv-x="705" 
d="M748 471l-54 -82h-51v-153q0 -111 -81 -178.5t-210 -67.5q-128 0 -209 65q-41 35 -61.5 79t-20.5 102v583h109v-577q0 -78 47 -125q51 -45 135 -45t133 45q50 42 50 125v147h-216v156h109v-74h107v348h108v-348h105z" />
    <glyph glyph-name="Ecircumflex" unicode="&#xca;" horiz-adv-x="727" 
d="M750 881q0 -53 -45 -97q-45 -37 -111 -49q9 -11 18 -27.5t15 -31.5q12 -32 12 -70v-606h-109v461q-27 -23 -94 -45l-117 -31q-68 -14 -110.5 -56t-42.5 -110q0 -66 53 -100.5t135 -34.5h15q22 0 34 4l29 4l-59 -92l-33 -2q-18 0 -25 -2q-59 0 -106.5 14t-85.5 45
q-72 63 -72 170q0 90 62.5 152.5t167.5 89.5q67 15 106 26t53 17q86 37 86 106q0 56 -44 94t-113 38q-68 0 -119 -38t-51 -96h-123q12 92 91.5 153.5t194.5 61.5q57 0 107 -12l63 -22q10 -2 16 -2q18 0 42 12q33 20 33 57q0 15 -2 19h129z" />
    <glyph glyph-name="Edieresis" unicode="&#xcb;" horiz-adv-x="715" 
d="M653 0h-108v555q0 53 -13 80q-9 26 -43 29q-19 0 -36 -17q-12 -11 -43 -80l-230 -567h-108v725q0 33 -11.5 51t-44.5 43h129q35 -21 35 -69v-508l154 379q10 26 19 43.5t20 29.5q19 23 61 33h-104v92h323v-92h-121q121 -27 121 -166v-561z" />
    <glyph glyph-name="Igrave" unicode="&#xcc;" horiz-adv-x="788" 
d="M748 1110q0 -72 -74 -113q-56 -30 -125 -30q76 0 127 -46t51 -114v-653q0 -83 -57 -127q-49 -37 -129 -37q-103 0 -146 67q-9 -14 -23.5 -27t-35.5 -22q-41 -18 -86 -18q-41 0 -72.5 8t-56.5 27q-60 43 -60 129v665h109v-665q0 -22 5 -38t18 -26q24 -18 63 -18
q33 0 58.5 19t25.5 63v665h109v-665q0 -41 24 -62q12 -9 28.5 -14.5t33.5 -5.5q35 0 59 18t24 64v637q0 62 -44 98.5t-123 36.5h-35v82h35q93 0 143 24q47 26 47 86v29h107v-37z" />
    <glyph glyph-name="Iacute" unicode="&#xcd;" horiz-adv-x="684" 
d="M633 276q0 -136 -77 -211t-214 -75q-134 0 -212.5 74.5t-78.5 211.5v216h291v-93h-182v-116q0 -50 11 -88.5t36 -67.5q49 -55 135 -55q82 0 132 56t50 155v274q0 43 -11 76.5t-36 60.5q-43 54 -135 54q-81 0 -131.5 -44t-50.5 -126h-109q0 113 79.5 182t211.5 69
q66 0 119 -17.5t92 -53.5q80 -68 80 -195v-287z" />
    <glyph glyph-name="Icircumflex" unicode="&#xce;" horiz-adv-x="694" 
d="M700 881q0 -51 -41 -82q-17 -15 -41.5 -25t-56.5 -16q72 -66 72 -174v-308q0 -136 -77 -211t-214 -75q-134 0 -212.5 74.5t-78.5 211.5v216h291v-93h-182v-116q0 -50 11 -88.5t36 -67.5q49 -55 135 -55q82 0 132 56t50 155v274q0 43 -11 76.5t-36 60.5q-43 54 -135 54
q-81 0 -131.5 -44t-50.5 -126h-109q0 113 79.5 182t211.5 69q44 0 82 -6l65 -12q16 -2 22 -2q20 0 38 12q22 20 22 60h129z" />
    <glyph glyph-name="Idieresis" unicode="&#xcf;" horiz-adv-x="662" 
d="M598 86q0 -66 -39 -86h-125q55 18 55 88v551q-14 -32 -73 -70q-27 -15 -59.5 -23.5t-63.5 -8.5q-99 0 -170.5 49.5t-71.5 128.5q0 19 2 33.5t8 25.5q11 22 31 45h117q-13 -13 -25 -33q-7 -13 -10.5 -26t-5.5 -31q0 -51 43 -82q22 -14 48 -21.5t56 -7.5q65 0 119.5 49
t54.5 126v26h109v-733z" />
    <glyph glyph-name="Eth" unicode="&#xd0;" horiz-adv-x="371" 
d="M330 643l-56 -82h-223v156h109v-74h170zM330 184l-56 -82h-223v156h109v-74h170z" />
    <glyph glyph-name="Ntilde" unicode="&#xd1;" 
d="M66 911h-451v166h109v-84h342v-82z" />
    <glyph glyph-name="Ograve" unicode="&#xd2;" horiz-adv-x="608" 
d="M547 0h-109v563q0 92 -35 137q-34 48 -112 48q-64 0 -107 -40t-43 -94h-110q0 83 74.5 149t183.5 66q258 0 258 -247v-582z" />
    <glyph glyph-name="Oacute" unicode="&#xd3;" horiz-adv-x="608" 
d="M6 1020q0 -46 -34.5 -77.5t-84.5 -31.5q-48 0 -84 29q-34 32 -34 80q0 45 34 78q35 30 84 30q50 0 86 -30q33 -30 33 -78zM547 0h-109v563q0 92 -35 137q-34 48 -112 48q-64 0 -107 -40t-43 -94h-110q0 83 74.5 149t183.5 66q258 0 258 -247v-582zM-66 1020q0 23 -11 35
t-36 12q-47 0 -47 -47t47 -47q23 0 35 11t12 36z" />
    <glyph glyph-name="Ocircumflex" unicode="&#xd4;" 
d="M-61 911h-549v82h549v-82z" />
    <glyph glyph-name="Otilde" unicode="&#xd5;" 
d="M-61 911h-549v82h440v103h109v-185z" />
    <glyph glyph-name="Odieresis" unicode="&#xd6;" 
d="M-2 1020q0 -41 -31 -78q-31 -31 -84 -31h-493v82h385l-4 27q0 43 34 76q16 15 35.5 23.5t42.5 8.5q49 0 82 -30q16 -16 24.5 -35t8.5 -43zM-68 1020q0 18 -12.5 31t-36.5 16q-15 0 -33 -14q-13 -12 -16 -33q0 -19 14 -33q13 -11 35 -14q18 0 35 14q11 11 14 33z" />
    <glyph glyph-name="multiply" unicode="&#xd7;" 
d="M-61 911h-549v82h291v103h86v-103h63v103h109v-185z" />
    <glyph glyph-name="Oslash" unicode="&#xd8;" 
d="M-61 -348h-109v174h-88v92h197v-266z" />
    <glyph glyph-name="Ugrave" unicode="&#xd9;" 
d="M-61 -233q0 -61 -62 -99q-51 -28 -117 -28q-68 0 -120 26q-64 33 -64 96v64h-65v92h174v-141q0 -60 75 -60q15 0 26.5 3t26 13t17.5 44v141h109v-151z" />
    <glyph glyph-name="Uacute" unicode="&#xda;" 
d="M-41 -154q0 -30 -20 -51q-19 -17 -52 -20q-31 0 -49.5 18.5t-21.5 52.5q0 31 20 52q17 17 51 20q31 0 52 -20q17 -19 20 -52z" />
    <glyph glyph-name="Ucircumflex" unicode="&#xdb;" horiz-adv-x="532" 
 />
    <glyph glyph-name="Udieresis" unicode="&#xdc;" horiz-adv-x="696" 
 />
    <glyph glyph-name="Yacute" unicode="&#xdd;" horiz-adv-x="696" 
d="M641 98l-63 -63l-230 229l-229 -229l-64 63l230 230l-230 229l64 64l229 -230l230 230l63 -64l-229 -229z" />
    <glyph glyph-name="Thorn" unicode="&#xde;" horiz-adv-x="696" 
d="M420 563q0 -18 -4 -28.5t-17 -22.5q-17 -17 -51 -20q-31 0 -51 20q-16 16 -21 51q0 30 21 51q16 18 51 21q18 0 28.5 -4.5t22.5 -16.5q18 -17 21 -51zM655 283h-614v90h614v-90zM420 92q0 -18 -4 -28.5t-17 -22.5q-16 -16 -51 -21q-30 0 -51 21q-16 16 -21 51q0 30 21 51
q16 18 51 21q18 0 28.5 -4.5t22.5 -16.5q18 -17 21 -51z" />
    <glyph glyph-name="germandbls" unicode="&#xdf;" horiz-adv-x="733" 
d="M680 285q0 -134 -74 -209.5t-211 -75.5v-150h-61v150h-244v967h244v131h63v-131q133 0 199 -66q59 -59 59 -174q0 -87 -30.5 -134t-124.5 -79q95 -12 141 -76q39 -58 39 -153zM530 719q0 75 -28 106q-25 31 -105 43v-313q67 6 101 43q15 19 23.5 50t8.5 71zM334 553v317
h-25h-102v-317h102h25zM561 279q0 98 -49 141q-20 18 -47 26.5t-68 8.5l-2 -359q84 0 127 43q39 45 39 140zM334 96v361h-25h-102v-361h127z" />
    <glyph glyph-name="agrave" unicode="&#xe0;" horiz-adv-x="297" 
d="M285 82l-56 -82h-145v819h106v-737h95z" />
    <glyph glyph-name="aacute" unicode="&#xe1;" horiz-adv-x="551" 
d="M539 82l-56 -82h-145v819h106v-737h95zM285 82l-56 -82h-145v819h106v-737h95z" />
    <glyph glyph-name="acircumflex" unicode="&#xe2;" horiz-adv-x="340" 
d="M453 1161q-35 32 -91 49q-26 9 -53 15t-49 6q-45 0 -85.5 -13.5t-43.5 -43.5q0 -16 51 -44q51 -25 51 -59v-989h95l-56 -82h-145v1032q0 35 -57 72q-56 33 -56 74q0 59 71 96t153 37q28 0 53 -3t61 -12q60 -12 101 -36v-99z" />
    <glyph glyph-name="atilde" unicode="&#xe3;" horiz-adv-x="340" 
d="M385 1171q0 -46 -76 -90.5t-76 -99.5v-899h95l-56 -82h-145v1014q0 44 71.5 82t71.5 80q0 29 -30 55q-30 22 -70 22q-42 0 -80 -30q-16 -15 -24.5 -32t-8.5 -38h-112q0 70 67.5 124t153.5 54q89 0 154 -43t65 -117z" />
    <glyph glyph-name="adieresis" unicode="&#xe4;" horiz-adv-x="340" 
d="M346 1202q-46 0 -80 -31q-16 -16 -24.5 -37t-8.5 -51v-1001h95l-56 -82h-145v1110q0 21 3 33.5t13 25.5q18 21 45 33h-315l61 88h412v-88z" />
    <glyph glyph-name="aring" unicode="&#xe5;" horiz-adv-x="608" 
d="M547 -287h-109v850q0 92 -35 137q-34 48 -112 48q-64 0 -107 -40t-43 -94h-110q0 83 74.5 149t183.5 66q258 0 258 -247v-869z" />
    <glyph glyph-name="ae" unicode="&#xe6;" horiz-adv-x="684" 
d="M621 -287h-107v942q0 28 -18 54q-15 19 -43 22q-15 -26 -43 -43q-17 -8 -32.5 -12t-35.5 -4q-21 0 -36.5 3.5t-31.5 12.5q-25 14 -43 43q-26 0 -45 -20q-16 -21 -16 -56v-61h86v-82h-195v141q0 87 54 131.5t151 44.5q0 -31 22 -49t54 -18q27 0 51.5 18.5t24.5 48.5
q46 0 83 -11t64 -36q56 -42 56 -129v-940z" />
    <glyph glyph-name="ccedilla" unicode="&#xe7;" 
d="M-80 997l-41 -86h-108q-63 0 -103 52q-18 -25 -45.5 -38.5t-83.5 -13.5h-123v101q0 68 54 106q49 41 137 41h121q73 0 73 53v29h109v-47q0 -55 -31 -82q-15 -12 -42.5 -19.5t-61.5 -7.5h-156q-92 0 -92 -61v-27q65 0 88 9q25 6 53 47q25 -34 54 -45t77 -11h121z" />
    <glyph glyph-name="egrave" unicode="&#xe8;" 
d="M-61 1157h-109v143h109v-143z" />
    <glyph glyph-name="eacute" unicode="&#xe9;" 
d="M49 1157h-295v33q0 38 -16.5 48.5t-77.5 10.5l43 80h53q101 0 101 -82v-16h192v-74z" />
    <glyph glyph-name="ecircumflex" unicode="&#xea;" 
d="M113 1358l4 -39q0 -53 -43 -107q-42 -46 -101 -55h-59v43q0 43 -31 49q0 -15 -22 -32q-20 -12 -51 -15q-26 0 -50.5 13.5t-27.5 33.5q-31 -3 -31 -49v-43h-86v51q0 115 121 115q0 -22 22 -39q19 -13 52 -16q25 0 49 14q17 14 20 41q123 0 123 -115q31 22 31 88
q0 19 -3 33t-12 29h95z" />
    <glyph glyph-name="edieresis" unicode="&#xeb;" 
d="M18 1223h-88v-66h-94v66h-88v63h88v66h94v-66h88v-63z" />
    <glyph glyph-name="igrave" unicode="&#xec;" 
d="M8 1155h-67q-43 0 -58 -8q-16 -6 -16 -41v-27h-96v47q0 103 131 103h106v-74z" />
    <glyph glyph-name="iacute" unicode="&#xed;" 
d="M6 1020q0 -46 -34.5 -77.5t-84.5 -31.5q-48 0 -84 29q-34 32 -34 80q0 45 34 78q35 30 84 30q50 0 86 -30q33 -30 33 -78zM-66 1020q0 23 -11 35t-36 12q-47 0 -47 -47t47 -47q23 0 35 11t12 36z" />
    <glyph glyph-name="icircumflex" unicode="&#xee;" 
d="M6 1466h-12h-14h-11q-8 2 -12 2q-36 0 -80 -6q-38 0 -84 -16q-39 -12 -63 -33q-20 -16 -23 -45q0 -38 60 -53q12 0 24.5 -0.5t36.5 -3.5v-74q-30 0 -78 -10q-21 0 -40 -4.5t-46 -14.5q-44 -12 -67 -32q-24 -18 -21 -46q6 -30 62 -30q23 0 43 4t49 16q3 0 8.5 2t13.5 8
l35 -63l-43 -20q-27 -10 -55 -15.5t-54 -5.5q-18 0 -26 2q-27 3 -47 11t-37 24q-33 28 -33 67q0 37 25 72q11 16 23 28t27 20t30.5 13.5t31.5 10.5q29 6 56 6q-18 8 -26.5 13t-16.5 16q-21 26 -21 59q0 37 33.5 77t79.5 58q19 10 44.5 16t57.5 10.5t68.5 7.5t72.5 3h25h4
v-74z" />
    <glyph glyph-name="idieresis" unicode="&#xef;" horiz-adv-x="963" 
d="M901 410q0 -171 -123 -295.5t-297 -124.5q-171 0 -295.5 123t-124.5 297q0 171 123.5 295t296.5 124q170 0 295 -122.5t125 -296.5zM840 410q0 148 -106.5 253t-252.5 105q-147 0 -252.5 -106t-105.5 -252q0 -147 104.5 -253t253.5 -106q148 0 252 105q53 53 80 115.5
t27 138.5zM737 410q0 -104 -74.5 -180t-181.5 -76q-103 0 -179.5 73.5t-76.5 182.5q0 103 74 180q36 36 82 56t100 20q104 0 180 -75.5t76 -180.5z" />
    <glyph glyph-name="eth" unicode="&#xf0;" horiz-adv-x="717" 
d="M676 307q0 -139 -90.5 -228t-227.5 -89q-135 0 -226 86.5t-91 230.5q0 141 93 229.5t224 88.5q134 0 226 -87.5t92 -230.5zM569 307q0 99 -61 166q-64 70 -150 70q-84 0 -147.5 -68t-63.5 -168q0 -97 61.5 -166t149.5 -69q86 0 148.5 67t62.5 168z" />
    <glyph glyph-name="ntilde" unicode="&#xf1;" horiz-adv-x="696" 
d="M655 305q0 -52 -9.5 -97.5t-31.5 -92.5q-36 -90 -100 -142l-92 27q55 55 91 138t36 173t-55 162q-27 35 -61 52.5t-79 17.5q-44 0 -80 -17.5t-67 -54.5q-60 -69 -60 -168q0 -55 18.5 -102.5t53.5 -73.5q26 47 76 47q32 0 59 -24q25 -25 25 -60q0 -37 -27 -63
q-25 -27 -73 -27q-104 0 -171 87t-67 218q0 129 90 225q46 48 99.5 71.5t119.5 23.5q140 0 222.5 -88.5t82.5 -231.5z" />
    <glyph glyph-name="ograve" unicode="&#xf2;" horiz-adv-x="860" 
d="M799 0h-738v608q0 59 -18 97q-14 28 -68 40l101 84q49 -12 67 -55q21 -42 21 -110v-578h532v381q0 76 -61 76q-62 0 -62 -76v-160h-102v160q0 76 -61 76q-62 0 -62 -76v-141q72 -11 72 -84q0 -32 -25 -60q-24 -24 -59 -24q-20 0 -36 5t-30 17q-24 26 -24 74v207
q0 84 45 123q24 20 51.5 30.5t60.5 10.5q19 0 36.5 -4.5t35.5 -14.5q29 -14 47 -49q35 68 119 68q67 0 109 -35q49 -44 49 -129v-461z" />
    <glyph glyph-name="oacute" unicode="&#xf3;" horiz-adv-x="717" 
d="M655 0h-102v461q0 82 -72 82q-71 0 -71 -82v-461h-103v461q0 44 -20 61q-18 18 -51 21q-72 0 -72 -82v-303q72 -9 72 -84q0 -30 -25 -60q-24 -24 -59 -24q-41 0 -66 22q-25 27 -25 74v375q0 84 48 123q25 20 54.5 30.5t65.5 10.5q90 0 129 -68q38 68 129 68q75 0 117 -35
q51 -45 51 -129v-461z" />
    <glyph glyph-name="ocircumflex" unicode="&#xf4;" horiz-adv-x="696" 
d="M692 84l-45 -92q-136 0 -203 55q-65 -53 -149 -53q-110 0 -182 82q-36 41 -54 95.5t-18 127.5q0 142 91.5 230.5t242.5 88.5q115 0 160 25q49 32 49 121l-2 29q0 18 -2 26h108q0 -154 -76 -223q-65 -59 -186 -59q-127 0 -203 -57.5t-76 -178.5q0 -95 53 -157t128 -62
q21 0 37 4t36 16q-13 28 -19.5 56t-6.5 59q0 25 6 49q24 90 100 90q41 0 70 -24q22 -24 27 -62q0 -31 -25 -59q-25 -25 -59 -25h-13q0 -32 23 -59q25 -25 61 -37q18 -4 39 -7t43 -3q9 0 19 0.5t26 3.5z" />
    <glyph glyph-name="otilde" unicode="&#xf5;" horiz-adv-x="696" 
d="M692 84l-45 -92q-136 0 -203 55q-65 -53 -149 -53q-110 0 -182 82q-36 41 -54 95.5t-18 127.5q0 110 61 192.5t162 112.5q-35 37 -35 86q0 55 39 94q19 19 42 29t52 10q56 0 95 -39q18 -18 28.5 -42t10.5 -52q0 -46 -23 -69q111 15 111 143l-2 29q0 18 -2 26h108
q0 -74 -14 -128t-45 -91q-46 -55 -123 -55h-105h-28t-27 -2q-85 -9 -142 -73.5t-57 -168.5q0 -95 53 -157t128 -62q21 0 37 4t36 16q-13 28 -19.5 56t-6.5 59q0 25 6 49q24 90 100 90q41 0 70 -24q22 -24 27 -62q0 -31 -25 -59q-25 -25 -59 -25h-13q0 -32 23 -59
q25 -25 61 -37q18 -4 39 -7t43 -3q9 0 19 0.5t26 3.5zM420 688q0 14 -3 22.5t-15 20t-40 14.5q-24 0 -39 -14.5t-18 -42.5q0 -14 3 -22.5t15 -20t39 -14.5q14 0 23 3.5t18 12.5q14 13 17 41z" />
    <glyph glyph-name="odieresis" unicode="&#xf6;" horiz-adv-x="670" 
d="M629 334q0 -162 -80 -253t-225 -91q-50 0 -92.5 11t-79.5 36q-89 57 -89 145q0 39 27 68q13 13 28 19.5t36 6.5q38 0 63 -27.5t25 -60.5q0 -42 -33 -69q22 -21 59 -33q13 -3 37 -5.5t43 -2.5q78 0 127 72q45 67 45 172q0 87 -45 149q-25 36 -57 54t-74 18q-59 0 -108 -37
q-43 -34 -66 -96h-109v258q0 82 -75 82l98 79q44 -6 61 -34q19 -28 19 -80v-185q78 95 203 95q110 0 186 -89t76 -202z" />
    <glyph glyph-name="divide" unicode="&#xf7;" horiz-adv-x="907" 
d="M909 764q-63 -12 -63 -90v-451q0 -99 -65 -161t-169 -62h-112q53 24 53 106v355q0 82 -72 82q-71 0 -71 -82v-461h-103v461q0 44 -20 61q-18 18 -51 21q-72 0 -72 -82v-303q72 -9 72 -84q0 -30 -25 -60q-24 -24 -59 -24q-41 0 -66 22q-25 27 -25 74v375q0 84 48 123
q25 20 54.5 30.5t65.5 10.5q90 0 129 -68q38 68 129 68q75 0 117 -35q51 -45 51 -129v-355q0 -41 -18 -59q43 0 74 49q15 24 23.5 55t8.5 64v487q0 109 84 127z" />
    <glyph glyph-name="oslash" unicode="&#xf8;" horiz-adv-x="686" 
d="M655 696q0 -73 -57.5 -120.5t-142.5 -47.5h-84q-123 0 -169 -43t-46 -180q0 -141 13 -181t62 -40l121 127l119 -125q32 0 47 18q7 11 10.5 24.5t3.5 33.5q-71 9 -71 84q0 32 24 59q25 25 60 25q39 0 65 -25q25 -21 25 -72v-90q0 -34 -8 -60t-27 -46q-30 -37 -88 -37h-78
l-82 92l-82 -92h-69q-81 0 -117 51q-16 26 -24.5 67.5t-8.5 96.5v141q0 127 68 195q69 63 188 63h115q131 0 131 115v100l102 -41v-92z" />
    <glyph glyph-name="ugrave" unicode="&#xf9;" horiz-adv-x="676" 
d="M741 758q-33 0 -51 -25q-7 -12 -10.5 -27.5t-3.5 -37.5v-181h-105q-16 49 -70 49q-9 -1 -14 -1q-53 -11 -53 -74q0 -15 2 -21q0 -7 31 -106q4 -20 8.5 -38.5t13.5 -47.5q12 -52 22.5 -87.5t23.5 -64.5q22 -48 67 -96h-129q-15 24 -26.5 47.5t-22.5 52.5q-18 57 -39 148
q-8 40 -19.5 77t-23.5 64q-41 80 -98 80q-39 0 -64.5 -32.5t-25.5 -86.5v-170q0 -34 8 -53q5 -13 22 -23q14 66 82 66q32 0 60 -25q24 -24 24 -59q0 -39 -31 -70q-16 -13 -38 -19.5t-52 -6.5q-76 0 -125 43q-53 51 -53 149v176q0 86 49 146q49 55 129 55q43 0 72 -8
q32 -6 61 -25q26 99 113 99q12 0 25.5 -0.5t34.5 -8.5q25 -6 38 -22v121q0 50 17 80q16 25 63 34z" />
    <glyph glyph-name="uacute" unicode="&#xfa;" horiz-adv-x="870" 
d="M809 86q0 -66 -39 -86h-125q55 18 55 88v576q-13 -15 -31 -26t-48 -22q-5 0 -23 -6v-524q0 -66 -39 -86h-125q55 18 55 88v551q-14 -32 -73 -70q-27 -15 -59.5 -23.5t-63.5 -8.5q-99 0 -170.5 49.5t-71.5 128.5q0 19 2 33.5t8 25.5q11 22 31 45h117q-13 -13 -25 -33
q-7 -13 -10.5 -26t-5.5 -31q0 -51 43 -82q22 -14 48 -21.5t56 -7.5q65 0 119.5 49t54.5 126v26h109v-147q12 4 18 6.5t13 7.5q71 44 71 117v16h109v-733z" />
    <glyph glyph-name="ucircumflex" unicode="&#xfb;" horiz-adv-x="1495" 
d="M1493 434q0 -24 -49 -31l-178 -18q-4 -16 -11 -27q-12 -23 -32 -26q-13 0 -21 16q-15 37 -18 43q-9 20 -23 43q-3 -26 -8.5 -47.5t-13.5 -40.5q-14 -36 -37 -39q-19 0 -37 43q-27 66 -39 82q-6 -60 -20 -96q-19 -48 -45 -51q-24 0 -39 55q-22 77 -37 109
q-41 -191 -92 -191q-30 0 -41 41q-6 42 -15 68q-3 24 -18 69q-10 -46 -21.5 -82.5t-24.5 -64.5t-31.5 -56.5t-41.5 -54.5q-104 -119 -233 -119q-124 0 -199 97q-36 48 -56 113.5t-20 144.5q0 77 17 138.5t54.5 114.5t81.5 79t99 26q88 0 150.5 -73.5t62.5 -186.5
q0 -87 -38 -142t-97 -55q-48 0 -83.5 38.5t-35.5 97.5q0 55 35 96q17 20 37 30.5t45 10.5l33 -6q0 40 -35 75q-31 31 -72 31q-67 0 -115 -78q-24 -40 -35.5 -89.5t-11.5 -114.5q0 -125 54.5 -197t140.5 -72q98 0 172 105t98 278q6 50 17.5 67t35.5 17q31 0 62 -63
q29 -65 43 -154q8 38 12 72.5t4 75.5q0 49 37 49q21 0 49 -49q14 -22 27 -51q9 -19 27 -64l10 88q0 37 28 37q27 0 62 -62l37 -73l14 67q9 37 33 37q12 0 33 -22q16 -18 41 -54q12 42 45 45l178 -18q49 -6 49 -31zM475 453q0 14 -3 23.5t-13 21.5q-15 18 -39 18
q-19 0 -37 -18q-13 -17 -16 -45q0 -25 13 -44.5t40 -19.5q20 0 39 19q13 15 16 45z" />
    <glyph glyph-name="udieresis" unicode="&#xfc;" 
d="M-61 -635h-109v174h-88v92h197v-266z" />
    <glyph glyph-name="yacute" unicode="&#xfd;" 
d="M-61 -520q0 -62 -62 -98q-50 -29 -117 -29q-68 0 -120 26q-64 33 -64 97v63h-65v92h174v-141q0 -59 75 -59q29 0 48 12.5t22 46.5v141h109v-151z" />
    <glyph glyph-name="thorn" unicode="&#xfe;" 
d="M-41 -440q0 -31 -20 -52q-19 -17 -52 -20q-31 0 -51 20q-17 19 -20 52q0 31 18.5 49.5t52.5 21.5q31 0 52 -20q17 -17 20 -51z" />
    <glyph glyph-name="ydieresis" unicode="&#xff;" horiz-adv-x="1032" 
d="M1022 483q0 -209 -148 -357.5t-356 -148.5t-358 146.5t-150 359.5q0 209 147.5 356.5t360.5 147.5q209 0 356.5 -147.5t147.5 -356.5zM946 483q0 178 -125 303q-62 62 -137.5 93.5t-165.5 31.5q-177 0 -304.5 -123.5t-127.5 -304.5q0 -182 125 -307t307 -125
q178 0 303 125t125 307zM778 616q0 -79 -49 -117t-129 -38l168 -260h-82l-162 260h-125v-260h-71v567h250q23 0 44.5 -0.5t34.5 -3.5q26 -3 56 -27q15 -9 27.5 -21.5t21 -29t12.5 -32.5t4 -38zM707 618q0 56 -41 74q-20 10 -47.5 15.5t-59.5 5.5h-160v-199h105h31q40 0 67 3
t47 11q58 24 58 90z" />
    <glyph glyph-name="NAK" horiz-adv-x="655" 
d="M539 162l-195 200v78l195 199v-107l-129 -133l129 -131v-106zM309 162l-194 200v78l194 199v-107l-129 -133l129 -131v-106z" />
    <glyph glyph-name="SYN" horiz-adv-x="655" 
d="M539 358l-195 -196v106l129 131l-129 133v107l195 -201v-80zM309 358l-194 -196v106l129 131l-129 133v107l194 -201v-80z" />
    <glyph glyph-name="ETB" unicode="&#xf100;" horiz-adv-x="696" 
 />
    <glyph glyph-name="lslash" unicode="&#xf101;" horiz-adv-x="719" 
 />
    </font>
</defs>
</svg>
